<svg width="23" height="23" viewBox="0 0 23 23" fill="none" xmlns="http://www.w3.org/2000/svg">
<path d="M11.4996 14.102C10.105 14.1021 8.74179 13.6887 7.58223 12.914C6.42266 12.1393 5.51885 11.0381 4.98511 9.74974C4.45136 8.46134 4.31167 7.0436 4.58365 5.6758C4.85564 4.308 5.52708 3.05158 6.51312 2.06542C7.49915 1.07926 8.75547 0.407641 10.1232 0.135527C11.4909 -0.136587 12.9086 0.00302576 14.197 0.536682C15.4854 1.07034 16.5866 1.97407 17.3613 3.13362C18.1361 4.29316 18.5497 5.65644 18.5497 7.05102C18.5477 8.92037 17.8044 10.7126 16.4826 12.0345C15.1609 13.3564 13.3688 14.0999 11.4996 14.102ZM11.4996 2.41995C10.5839 2.41983 9.68874 2.69126 8.92733 3.1999C8.16592 3.70853 7.57245 4.43152 7.22193 5.27747C6.87141 6.12342 6.7796 7.05432 6.95812 7.95245C7.13664 8.85058 7.57745 9.6756 8.22484 10.3232C8.87222 10.9708 9.69709 11.4118 10.5951 11.5906C11.4932 11.7693 12.4241 11.6778 13.2701 11.3275C14.1161 10.9772 14.8392 10.3838 15.348 9.62252C15.8568 8.86121 16.1285 7.96611 16.1286 7.05041C16.1272 5.82299 15.639 4.64623 14.7713 3.7782C13.9035 2.91016 12.7269 2.42172 11.4996 2.41995Z" fill="#2C3149"/>
<path d="M21.7895 23.0001C21.4684 23.0001 21.1605 22.8725 20.9335 22.6455C20.7065 22.4185 20.5789 22.1106 20.5789 21.7895C20.5765 19.7515 19.7659 17.7976 18.3249 16.3565C16.8838 14.9154 14.93 14.1047 12.8921 14.1023H10.1079C8.06996 14.1047 6.11617 14.9154 4.67513 16.3565C3.23408 17.7976 2.42346 19.7515 2.42105 21.7895C2.42105 22.1106 2.2935 22.4185 2.06648 22.6455C1.83946 22.8725 1.53158 23.0001 1.21053 23.0001C0.889475 23.0001 0.581553 22.8725 0.354536 22.6455C0.127518 22.4185 0 22.1106 0 21.7895C0.00320359 19.1096 1.06916 16.5403 2.96407 14.6453C4.85897 12.7504 7.42811 11.6844 10.1079 11.6812H12.8921C15.5719 11.6844 18.141 12.7504 20.0359 14.6453C21.9308 16.5403 22.9968 19.1096 23 21.7895C23 22.1106 22.8724 22.4185 22.6454 22.6455C22.4184 22.8725 22.1105 23.0001 21.7895 23.0001Z" fill="#00FFB2"/>
</svg>
