<svg width="20" height="20" viewBox="0 0 20 20" fill="none" xmlns="http://www.w3.org/2000/svg">
<path d="M17.0921 19.2924H4.34078C3.18989 19.2912 2.08646 18.8335 1.27266 18.0197C0.45885 17.2059 0.00114917 16.1025 0 14.9516V1.92924C0 1.41757 0.203286 0.926773 0.565088 0.564971C0.926891 0.203169 1.41757 0 1.92924 0H13.6822C14.1938 0 14.6845 0.203169 15.0463 0.564971C15.4081 0.926773 15.6114 1.41757 15.6114 1.92924V13.0224C15.6114 13.2782 15.5098 13.5235 15.3289 13.7044C15.148 13.8853 14.9026 13.987 14.6468 13.987C14.391 13.987 14.1456 13.8853 13.9647 13.7044C13.7838 13.5235 13.6822 13.2782 13.6822 13.0224V1.92924H1.92971V14.9516C1.93035 15.591 2.18463 16.204 2.63675 16.6562C3.08886 17.1083 3.70187 17.3625 4.34125 17.3631H17.0925C17.3484 17.3631 17.5938 17.4648 17.7747 17.6457C17.9556 17.8266 18.0572 18.0719 18.0572 18.3278C18.0572 18.5836 17.9556 18.8289 17.7747 19.0098C17.5938 19.1907 17.3479 19.2924 17.0921 19.2924Z" fill="#2C3149"/>
<path d="M16.8398 19.2924C16.0026 19.2914 15.2 18.9583 14.6079 18.3664C14.0159 17.7744 13.6828 16.972 13.6816 16.1348V8.84902C13.6816 8.59319 13.7832 8.34767 13.9641 8.16677C14.145 7.98587 14.3904 7.8844 14.6463 7.8844C14.9021 7.8844 15.1474 7.98587 15.3283 8.16677C15.5092 8.34767 15.6109 8.59319 15.6109 8.84902V16.1348C15.6109 16.4609 15.7404 16.7738 15.9711 17.0045C16.2017 17.2351 16.5145 17.3646 16.8407 17.3646C17.1669 17.3646 17.4797 17.2351 17.7104 17.0045C17.941 16.7738 18.0706 16.4609 18.0706 16.1348V9.81364H17.4152C17.1593 9.81364 16.914 9.71193 16.7331 9.53103C16.5522 9.35013 16.4506 9.10485 16.4506 8.84902C16.4506 8.59319 16.5522 8.34767 16.7331 8.16677C16.914 7.98587 17.1593 7.8844 17.4152 7.8844H18.0706C18.5823 7.8844 19.073 8.08757 19.4348 8.44937C19.7966 8.81117 19.9999 9.30197 19.9999 9.81364V16.1348C19.9987 16.972 19.6656 17.7744 19.0736 18.3664C18.4816 18.9583 17.6789 19.2914 16.8417 19.2924" fill="#2C3149"/>
<path d="M6.57827 6.87528H4.1238C3.86797 6.87528 3.62262 6.77382 3.44172 6.59291C3.26082 6.41201 3.15918 6.1665 3.15918 5.91066C3.15918 5.65483 3.26082 5.40955 3.44172 5.22865C3.62262 5.04775 3.86797 4.94604 4.1238 4.94604H6.57827C6.8341 4.94604 7.07944 5.04775 7.26034 5.22865C7.44124 5.40955 7.54288 5.65483 7.54288 5.91066C7.54288 6.1665 7.44124 6.41201 7.26034 6.59291C7.07944 6.77382 6.8341 6.87528 6.57827 6.87528Z" fill="#69D2FF"/>
<path d="M11.098 10.2275H4.1238C3.86797 10.2275 3.62263 10.1258 3.44172 9.94485C3.26082 9.76395 3.15918 9.51867 3.15918 9.26284C3.15918 9.007 3.26082 8.76172 3.44172 8.58082C3.62263 8.39992 3.86797 8.29822 4.1238 8.29822H11.098C11.3538 8.29822 11.5991 8.39992 11.78 8.58082C11.9609 8.76172 12.0626 9.007 12.0626 9.26284C12.0626 9.51867 11.9609 9.76395 11.78 9.94485C11.5991 10.1258 11.3538 10.2275 11.098 10.2275Z" fill="#69D2FF"/>
</svg>
