<svg width="10" height="20" viewBox="0 0 10 20" fill="none" xmlns="http://www.w3.org/2000/svg">
<path d="M9.0704 20C8.82395 20.0001 8.58755 19.8921 8.41319 19.7L0.272401 10.7255C0.186042 10.6303 0.117533 10.5172 0.0707936 10.3927C0.0240543 10.2683 0 10.1349 0 10.0002C0 9.86543 0.0240543 9.73199 0.0707936 9.60752C0.117533 9.48306 0.186042 9.36998 0.272401 9.27474L8.41319 0.300296C8.58755 0.107978 8.82402 -4.80707e-05 9.07056 1.60471e-08C9.31711 4.81027e-05 9.55354 0.10816 9.72784 0.300546C9.90214 0.492932 10 0.753875 10 1.0259C9.99996 1.29793 9.90198 1.55875 9.72761 1.75107L2.2445 9.99991L9.72761 18.2492C9.85758 18.3926 9.94608 18.5753 9.98193 18.7743C10.0178 18.9732 9.99937 19.1794 9.92903 19.3668C9.85869 19.5542 9.73957 19.7143 9.58674 19.827C9.43391 19.9397 9.25422 20 9.0704 20Z" fill="#2C3149"/>
</svg>
