<svg width="22" height="40" viewBox="0 0 22 40" fill="none" xmlns="http://www.w3.org/2000/svg">
<path d="M19.7573 39.0963C19.227 39.0965 18.7184 38.886 18.3433 38.5112L0.828262 21.0112C0.642459 20.8255 0.495061 20.605 0.394501 20.3623C0.293941 20.1196 0.242188 19.8595 0.242188 19.5968C0.242188 19.3341 0.293941 19.0739 0.394501 18.8312C0.495061 18.5885 0.642459 18.368 0.828262 18.1823L18.3433 0.682251C18.7184 0.307235 19.2272 0.096586 19.7576 0.0966797C20.2881 0.0967735 20.7967 0.307591 21.1718 0.682739C21.5468 1.05789 21.7574 1.56672 21.7573 2.09717C21.7572 2.62761 21.5464 3.13621 21.1713 3.51123L5.07126 19.5963L21.1713 35.6823C21.4509 35.962 21.6413 36.3183 21.7184 36.7062C21.7956 37.0941 21.756 37.4962 21.6046 37.8616C21.4533 38.227 21.197 38.5393 20.8682 38.759C20.5394 38.9788 20.1528 39.0962 19.7573 39.0963Z" fill="#00FFB2"/>
</svg>
