<svg width="22" height="40" viewBox="0 0 22 40" fill="none" xmlns="http://www.w3.org/2000/svg">
<path d="M19.7573 39.0953C19.227 39.0955 18.7184 38.885 18.3433 38.5103L0.828262 21.0103C0.642459 20.8245 0.495061 20.604 0.394501 20.3613C0.293941 20.1186 0.242188 19.8585 0.242188 19.5958C0.242188 19.3331 0.293941 19.0729 0.394501 18.8302C0.495061 18.5875 0.642459 18.367 0.828262 18.1813L18.3433 0.681274C18.7184 0.306258 19.2272 0.0956094 19.7576 0.0957032C20.2881 0.0957969 20.7967 0.306614 21.1718 0.681763C21.5468 1.05691 21.7574 1.56574 21.7573 2.09619C21.7572 2.62664 21.5464 3.13524 21.1713 3.51025L5.07126 19.5953L21.1713 35.6813C21.4509 35.961 21.6413 36.3173 21.7184 36.7052C21.7956 37.0931 21.756 37.4952 21.6046 37.8606C21.4533 38.226 21.197 38.5383 20.8682 38.7581C20.5394 38.9778 20.1528 39.0953 19.7573 39.0953Z" fill="#A6C9FF"/>
</svg>
