<svg width="20" height="22" viewBox="0 0 20 22" fill="none" xmlns="http://www.w3.org/2000/svg">
<path fill-rule="evenodd" clip-rule="evenodd" d="M10.1719 9.77637C10.5861 9.77637 10.9219 10.1122 10.9219 10.5264V20.8823C10.9219 21.2965 10.5861 21.6323 10.1719 21.6323C9.75766 21.6323 9.42188 21.2965 9.42188 20.8823V10.5264C9.42188 10.1122 9.75766 9.77637 10.1719 9.77637Z" fill="black"/>
<path fill-rule="evenodd" clip-rule="evenodd" d="M10.658 0.775142L19.104 5.27279C19.1115 5.27681 19.119 5.28096 19.1264 5.28524C19.4365 5.46427 19.6275 5.79509 19.6275 6.15306V14.1895C19.6275 14.6037 19.2917 14.9395 18.8775 14.9395C18.4633 14.9395 18.1275 14.6037 18.1275 14.1895V6.45222L10.1726 2.21606L2.27051 6.45128V15.5956L10.199 20.1731L16.9318 16.2859C17.2905 16.0788 17.7492 16.2017 17.9563 16.5604C18.1634 16.9191 18.0405 17.3778 17.6818 17.5849L10.7 21.6158L10.7 21.6159C10.39 21.7948 10.008 21.7949 9.69785 21.6158L1.27157 16.7509C1.27156 16.7509 1.27155 16.7509 1.27154 16.7508C0.961438 16.5718 0.770508 16.241 0.770508 15.883V6.15306C0.770508 5.79491 0.961642 5.46425 1.27143 5.28532C1.2783 5.28135 1.28524 5.27749 1.29224 5.27374L9.68453 0.775771C9.98702 0.607399 10.3552 0.607076 10.658 0.775142ZM10.4475 20.3165L10.448 20.3168L10.4481 20.3169C10.4479 20.3167 10.4477 20.3166 10.4475 20.3165Z" fill="black"/>
<path fill-rule="evenodd" clip-rule="evenodd" d="M0.963303 5.71665C1.15507 5.3495 1.60816 5.20733 1.97531 5.39909L10.5188 9.86153C10.8859 10.0533 11.0281 10.5064 10.8363 10.8735C10.6446 11.2407 10.1915 11.3829 9.82433 11.1911L1.28085 6.72865C0.913707 6.53689 0.771534 6.08379 0.963303 5.71665Z" fill="black"/>
<path fill-rule="evenodd" clip-rule="evenodd" d="M19.4396 5.71579C19.6304 6.08343 19.4871 6.53615 19.1195 6.72698L10.5176 11.1919C10.1499 11.3828 9.69719 11.2394 9.50636 10.8718C9.31554 10.5041 9.45887 10.0514 9.82651 9.8606L18.4284 5.39565C18.7961 5.20482 19.2488 5.34815 19.4396 5.71579Z" fill="black"/>
<path d="M14 3.5C14 4.88071 12.2091 6 10 6C7.79086 6 6 4.88071 6 3.5C6 2.11929 7.79086 1 10 1C12.2091 1 14 2.11929 14 3.5Z" fill="white"/>
<path fill-rule="evenodd" clip-rule="evenodd" d="M7.56907 2.36823C6.97157 2.74167 6.75 3.16155 6.75 3.5C6.75 3.83845 6.97157 4.25833 7.56907 4.63177C8.156 4.9986 9.01351 5.25 10 5.25C10.9865 5.25 11.844 4.9986 12.4309 4.63177C13.0284 4.25833 13.25 3.83845 13.25 3.5C13.25 3.16155 13.0284 2.74167 12.4309 2.36823C11.844 2.0014 10.9865 1.75 10 1.75C9.01351 1.75 8.156 2.0014 7.56907 2.36823ZM6.77407 1.09623C7.63486 0.558242 8.77735 0.25 10 0.25C11.2226 0.25 12.3651 0.558242 13.2259 1.09623C14.0761 1.62762 14.75 2.45774 14.75 3.5C14.75 4.54226 14.0761 5.37238 13.2259 5.90377C12.3651 6.44176 11.2226 6.75 10 6.75C8.77735 6.75 7.63486 6.44176 6.77407 5.90377C5.92386 5.37238 5.25 4.54226 5.25 3.5C5.25 2.45774 5.92386 1.62762 6.77407 1.09623Z" fill="#69D2FF"/>
<path fill-rule="evenodd" clip-rule="evenodd" d="M5.99961 2.40002C6.33098 2.40002 6.59961 2.66865 6.59961 3.00002L6.59961 6.00002C6.59961 6.3314 6.33098 6.60002 5.99961 6.60002C5.66824 6.60002 5.39961 6.3314 5.39961 6.00002L5.39961 3.00002C5.39961 2.66865 5.66824 2.40002 5.99961 2.40002Z" fill="#69D2FF"/>
</svg>
