<svg width="40" height="41" viewBox="0 0 40 41" fill="none" xmlns="http://www.w3.org/2000/svg">
<path d="M37.0461 40.0069C36.7834 40.0073 36.5232 39.9559 36.2805 39.8553C36.0379 39.7547 35.8175 39.6071 35.6321 39.421L0.632095 4.42097C0.441074 4.23648 0.288731 4.01581 0.183913 3.7718C0.0790954 3.5278 0.0238675 3.26539 0.0215599 2.99983C0.0192522 2.73427 0.0698629 2.47097 0.170425 2.22517C0.270986 1.97938 0.419529 1.75598 0.607314 1.56819C0.7951 1.38041 1.01838 1.23198 1.26417 1.13142C1.50997 1.03086 1.77334 0.98019 2.03889 0.982497C2.30445 0.984805 2.56692 1.04003 2.81093 1.14485C3.05494 1.24967 3.2756 1.40207 3.4601 1.59309L38.4601 36.5931C38.7394 36.8728 38.9295 37.229 39.0064 37.6168C39.0834 38.0045 39.0436 38.4064 38.8923 38.7716C38.7411 39.1368 38.4849 39.4488 38.1563 39.6685C37.8277 39.8883 37.4414 40.0066 37.0461 40.0069Z" fill="#A6C9FF"/>
<path d="M2.04495 40.0086C1.64945 40.0085 1.26287 39.8912 0.934048 39.6715C0.605228 39.4517 0.348937 39.1394 0.197597 38.774C0.0462573 38.4086 0.00669273 38.0066 0.0838278 37.6187C0.160963 37.2308 0.351389 36.8745 0.631008 36.5948L35.631 1.5948C36.0082 1.23049 36.5134 1.02872 37.0378 1.03328C37.5622 1.03784 38.0638 1.24816 38.4346 1.61897C38.8054 1.98979 39.0158 2.49155 39.0204 3.01594C39.0249 3.54034 38.8233 4.04548 38.459 4.42268L3.45895 39.4227C3.27357 39.6088 3.05319 39.7564 2.81051 39.857C2.56783 39.9576 2.30764 40.0091 2.04495 40.0086Z" fill="black"/>
</svg>
