<svg width="12" height="12" viewBox="0 0 12 12" fill="none" xmlns="http://www.w3.org/2000/svg">
<path d="M10.7056 11.256C10.6333 11.2561 10.5617 11.242 10.4949 11.2143C10.428 11.1866 10.3674 11.1459 10.3163 11.0947L0.679837 1.45821C0.627244 1.40741 0.585299 1.34665 0.55644 1.27947C0.527581 1.21229 0.512375 1.14004 0.51174 1.06692C0.511104 0.993809 0.525039 0.921313 0.552726 0.853639C0.580414 0.785966 0.621312 0.724456 0.673014 0.672753C0.724717 0.621051 0.786193 0.580186 0.853867 0.552499C0.92154 0.524811 0.994053 0.51086 1.06717 0.511495C1.14028 0.512131 1.21255 0.527337 1.27973 0.556196C1.34691 0.585055 1.40767 0.627016 1.45847 0.67961L11.095 10.3161C11.1719 10.3931 11.2242 10.4912 11.2454 10.5979C11.2666 10.7047 11.2556 10.8153 11.214 10.9159C11.1723 11.0164 11.1018 11.1024 11.0113 11.1629C10.9208 11.2234 10.8145 11.2559 10.7056 11.256Z" fill="#00B2FF"/>
<path d="M1.06884 11.2562C0.959947 11.2562 0.853511 11.2239 0.762978 11.1634C0.672444 11.1028 0.60188 11.0169 0.560212 10.9163C0.518544 10.8157 0.507651 10.705 0.528888 10.5982C0.550126 10.4914 0.602555 10.3933 0.679542 10.3163L10.316 0.679771C10.4199 0.579464 10.559 0.523913 10.7034 0.525167C10.8477 0.526422 10.9858 0.584329 11.0879 0.686425C11.19 0.788521 11.248 0.926671 11.2492 1.07105C11.2505 1.21543 11.195 1.35451 11.0946 1.45837L1.45815 11.0949C1.40711 11.1461 1.34644 11.1867 1.27962 11.2144C1.2128 11.2421 1.14117 11.2563 1.06884 11.2562Z" fill="#00B2FF"/>
</svg>
