<svg width="30" height="25" viewBox="0 0 30 25" fill="none" xmlns="http://www.w3.org/2000/svg">
<path d="M15 24.9986C14.6023 24.9987 14.2209 24.8466 13.9395 24.5757L10.2645 21.0343C9.98248 20.7638 9.6011 20.6116 9.20326 20.6107H4.5C3.30689 20.6096 2.163 20.1523 1.31934 19.3393C0.475688 18.5263 0.00119132 17.424 0 16.2742V4.33651C0.00138946 3.18681 0.475948 2.08457 1.31956 1.27161C2.16317 0.458646 3.30695 0.00133898 4.5 0H7.15201C7.54983 0 7.93136 0.152293 8.21267 0.423377C8.49397 0.694462 8.65201 1.06213 8.65201 1.4455C8.65201 1.82888 8.49397 2.19655 8.21267 2.46763C7.93136 2.73872 7.54983 2.89101 7.15201 2.89101H4.5C4.10218 2.89101 3.72064 3.0433 3.43934 3.31439C3.15803 3.58547 3 3.95314 3 4.33651V16.2757C3 16.659 3.15803 17.0267 3.43934 17.2978C3.72064 17.5689 4.10218 17.7212 4.5 17.7212H9.20476C9.79621 17.7196 10.3821 17.8311 10.9285 18.0494C11.4749 18.2676 11.9709 18.5881 12.3878 18.9925L15 21.5098L17.6123 18.9918C18.0291 18.5876 18.525 18.2672 19.0712 18.0491C19.6175 17.831 20.2032 17.7195 20.7945 17.7212H25.5C25.8978 17.7212 26.2794 17.5689 26.5607 17.2978C26.842 17.0267 27 16.659 27 16.2757V4.33651C27 3.95314 26.842 3.58547 26.5607 3.31439C26.2794 3.0433 25.8978 2.89101 25.5 2.89101H12.2421C11.8442 2.89101 11.4627 2.73872 11.1814 2.46763C10.9001 2.19655 10.7421 1.82888 10.7421 1.4455C10.7421 1.06213 10.9001 0.694462 11.1814 0.423377C11.4627 0.152293 11.8442 0 12.2421 0H25.5C26.693 0.00133898 27.8368 0.458646 28.6805 1.27161C29.5241 2.08457 29.9986 3.18681 30 4.33651V16.2757C29.9988 17.4254 29.5243 18.5278 28.6807 19.3408C27.837 20.1538 26.6931 20.611 25.5 20.6122H20.7945C20.397 20.613 20.0159 20.7649 19.734 21.035L16.059 24.5765C15.9199 24.711 15.7547 24.8176 15.5727 24.8903C15.3906 24.963 15.1955 25.0003 14.9985 25" fill="#2C3149"/>
<path d="M11.4288 9.86822C11.4288 10.9583 10.4694 11.8419 9.28592 11.8419C8.10246 11.8419 7.14307 10.9583 7.14307 9.86822C7.14307 8.77818 8.10246 7.89453 9.28592 7.89453C10.4694 7.89453 11.4288 8.77818 11.4288 9.86822Z" fill="#BD00FF"/>
<path d="M25.7144 9.86822C25.7144 10.9583 24.755 11.8419 23.5716 11.8419C22.3881 11.8419 21.4287 10.9583 21.4287 9.86822C21.4287 8.77818 22.3881 7.89453 23.5716 7.89453C24.755 7.89453 25.7144 8.77818 25.7144 9.86822Z" fill="#BD00FF"/>
<path d="M18.5714 9.86822C18.5714 10.9583 17.612 11.8419 16.4285 11.8419C15.245 11.8419 14.2856 10.9583 14.2856 9.86822C14.2856 8.77818 15.245 7.89453 16.4285 7.89453C17.612 7.89453 18.5714 8.77818 18.5714 9.86822Z" fill="#BD00FF"/>
</svg>
