<svg width="current" height="current" viewBox="0 0 10 9" fill="none" xmlns="http://www.w3.org/2000/svg">
<path d="M4.99282 8.74864C4.90325 8.7486 4.81533 8.72451 4.73826 8.67888C2.31425 7.24508 -0.370314 4.69631 0.0422721 2.23304C0.133032 1.68378 0.393999 1.1769 0.788324 0.783917C1.18265 0.390939 1.69042 0.131707 2.23998 0.0428257C2.74739 -0.0448366 3.26892 0.00259989 3.75219 0.180367C4.23545 0.358133 4.66341 0.659965 4.99306 1.05553C5.31337 0.670854 5.72739 0.375206 6.1952 0.197079C6.66301 0.0189506 7.16883 -0.035637 7.66388 0.0385828C8.22113 0.123274 8.73866 0.37782 9.14589 0.76751C9.55313 1.1572 9.83022 1.66304 9.93935 2.21602C10.432 4.64278 7.83891 7.14581 5.24636 8.67888C5.16922 8.72455 5.08122 8.74865 4.99157 8.74864M2.72734 1.00103C2.62224 1.00093 2.51731 1.00996 2.41377 1.02803C2.06769 1.0804 1.74718 1.24129 1.4984 1.48751C1.24963 1.73373 1.08543 2.05255 1.02948 2.39807C0.732916 4.16869 2.76859 6.28339 4.99381 7.66393C7.1125 6.35315 9.33472 4.25571 8.96115 2.41507C8.89142 2.06225 8.71448 1.73955 8.45451 1.49104C8.19454 1.24252 7.86419 1.08031 7.50859 1.02654C6.68341 0.896259 5.90525 1.32135 5.4294 2.16478C5.38587 2.24204 5.32258 2.30633 5.24601 2.35108C5.16945 2.39582 5.08237 2.41941 4.99369 2.41941C4.90501 2.41941 4.81793 2.39582 4.74136 2.35108C4.66479 2.30633 4.6015 2.24204 4.55797 2.16478C4.38821 1.82211 4.12783 1.53249 3.80511 1.32734C3.48239 1.12218 3.10966 1.00933 2.72734 1.00103Z" fill="current"/>
</svg>
