<svg width="41" height="41" viewBox="0 0 41 41" fill="none" xmlns="http://www.w3.org/2000/svg">
<path d="M29.1514 40.0201H10.8674C9.27397 40.0185 7.74613 39.3848 6.61938 38.2581C5.49264 37.1313 4.85901 35.6036 4.85742 34.0101V20.9221C4.85742 20.389 5.0691 19.8778 5.44604 19.5008C5.82299 19.1239 6.33435 18.9121 6.86743 18.9121C7.40052 18.9121 7.91175 19.1239 8.2887 19.5008C8.66564 19.8778 8.87744 20.389 8.87744 20.9221V34.0101C8.87824 34.5376 9.08813 35.0432 9.46118 35.416C9.83424 35.7889 10.34 35.9986 10.8674 35.9991H29.1514C29.6788 35.9986 30.1846 35.7889 30.5576 35.416C30.9307 35.0432 31.1406 34.5376 31.1414 34.0101V20.9221C31.1414 20.389 31.3532 19.8778 31.7301 19.5008C32.1071 19.1239 32.6183 18.9121 33.1514 18.9121C33.6845 18.9121 34.1957 19.1239 34.5726 19.5008C34.9496 19.8778 35.1614 20.389 35.1614 20.9221V34.0101C35.1595 35.6035 34.5257 37.1311 33.399 38.2578C32.2724 39.3845 30.7447 40.0183 29.1514 40.0201Z" fill="#2C3149"/>
<path d="M38.0094 18.6845C37.5469 18.6851 37.0984 18.5254 36.7404 18.2325L20.0104 4.60349L3.28041 18.2325C3.07574 18.3993 2.8402 18.5241 2.58729 18.5999C2.33439 18.6756 2.06906 18.7008 1.80641 18.674C1.54376 18.6472 1.28894 18.569 1.05653 18.4437C0.824127 18.3185 0.618697 18.1487 0.451919 17.944C0.28514 17.7393 0.160249 17.5038 0.0844871 17.2509C0.00872552 16.998 -0.0163994 16.7326 0.0103904 16.47C0.0371801 16.2073 0.115352 15.9525 0.240615 15.7201C0.365877 15.4877 0.535706 15.2823 0.740371 15.1155L18.7404 0.451477C19.0992 0.159447 19.5477 0 20.0104 0C20.473 0 20.9216 0.159447 21.2804 0.451477L39.2804 15.1155C39.6025 15.3776 39.8355 15.733 39.9474 16.1329C40.0593 16.5329 40.0445 16.9576 39.9052 17.3488C39.7659 17.74 39.5088 18.0785 39.1693 18.3176C38.8299 18.5568 38.4247 18.685 38.0094 18.6845Z" fill="#A6C9FF"/>
</svg>
