<svg width="30" height="31" viewBox="0 0 30 31" fill="none" xmlns="http://www.w3.org/2000/svg">
<path d="M24.5491 30.6864H6.83458C6.42766 30.6864 6.03742 30.5247 5.74968 30.2369C5.46194 29.9492 5.30026 29.559 5.30026 29.1521C5.30026 28.7452 5.46194 28.355 5.74968 28.0673C6.03742 27.7795 6.42766 27.6178 6.83458 27.6178H24.5491C24.9561 27.6178 25.3463 27.456 25.634 27.1683C25.9218 26.8805 26.0835 26.4904 26.0835 26.0835V4.60296C26.0835 4.19604 25.9218 3.80589 25.634 3.51815C25.3463 3.23041 24.9561 3.06864 24.5491 3.06864H4.60296C4.19604 3.06864 3.8058 3.23041 3.51806 3.51815C3.23032 3.80589 3.06864 4.19604 3.06864 4.60296V29.1521C3.06864 29.559 2.90697 29.9492 2.61923 30.2369C2.33149 30.5247 1.94125 30.6864 1.53432 30.6864C1.12739 30.6864 0.737155 30.5247 0.449414 30.2369C0.161673 29.9492 0 29.559 0 29.1521V4.60296C0.00142125 3.38262 0.486827 2.21256 1.34974 1.34965C2.21266 0.486733 3.38262 0.00142125 4.60296 0H24.5491C25.7695 0.00142125 26.9394 0.486733 27.8024 1.34965C28.6653 2.21256 29.1507 3.38262 29.1521 4.60296V26.0835C29.1511 27.3039 28.6658 28.4741 27.8028 29.3371C26.9398 30.2001 25.7696 30.6854 24.5491 30.6864Z" fill="#BD00FF"/>
<path d="M12.8351 22.2088H8.93178C8.52485 22.2088 8.13462 22.047 7.84688 21.7593C7.55913 21.4715 7.39746 21.0814 7.39746 20.6745C7.39746 20.2675 7.55913 19.877 7.84688 19.5893C8.13462 19.3015 8.52485 19.1401 8.93178 19.1401H12.8351C13.242 19.1401 13.6324 19.3015 13.9201 19.5893C14.2078 19.877 14.3694 20.2675 14.3694 20.6745C14.3694 21.0814 14.2078 21.4715 13.9201 21.7593C13.6324 22.047 13.242 22.2088 12.8351 22.2088Z" fill="black"/>
<path d="M20.0241 16.8777H8.93178C8.52485 16.8777 8.13462 16.716 7.84688 16.4282C7.55913 16.1405 7.39746 15.7503 7.39746 15.3434C7.39746 14.9365 7.55913 14.5463 7.84688 14.2586C8.13462 13.9708 8.52485 13.8091 8.93178 13.8091H20.0241C20.4311 13.8091 20.8214 13.9708 21.1091 14.2586C21.3969 14.5463 21.5585 14.9365 21.5585 15.3434C21.5585 15.7503 21.3969 16.1405 21.1091 16.4282C20.8214 16.716 20.4311 16.8777 20.0241 16.8777Z" fill="black"/>
<path d="M20.2198 11.5467H8.93178C8.52485 11.5467 8.13462 11.3849 7.84688 11.0972C7.55913 10.8094 7.39746 10.4193 7.39746 10.0123C7.39746 9.60542 7.55913 9.2149 7.84688 8.92716C8.13462 8.63942 8.52485 8.47803 8.93178 8.47803H20.2198C20.6267 8.47803 21.017 8.63942 21.3048 8.92716C21.5925 9.2149 21.7541 9.60542 21.7541 10.0123C21.7541 10.4193 21.5925 10.8094 21.3048 11.0972C21.017 11.3849 20.6267 11.5467 20.2198 11.5467Z" fill="black"/>
</svg>
