<svg width="18" height="19" viewBox="0 0 18 19" fill="none" xmlns="http://www.w3.org/2000/svg">
<path d="M15.1579 18.9474H4.22002C3.96876 18.9474 3.72781 18.8475 3.55015 18.6698C3.37248 18.4922 3.27265 18.2513 3.27265 18C3.27265 17.7487 3.37248 17.5078 3.55015 17.3302C3.72781 17.1525 3.96876 17.0526 4.22002 17.0526H15.1579C15.4092 17.0526 15.6501 16.9527 15.8278 16.7751C16.0054 16.5974 16.1053 16.3565 16.1053 16.1053V2.84211C16.1053 2.59085 16.0054 2.34995 15.8278 2.17229C15.6501 1.99462 15.4092 1.89474 15.1579 1.89474H2.84211C2.59085 1.89474 2.34989 1.99462 2.17223 2.17229C1.99456 2.34995 1.89474 2.59085 1.89474 2.84211V18C1.89474 18.2513 1.79491 18.4922 1.61725 18.6698C1.43958 18.8475 1.19863 18.9474 0.947368 18.9474C0.696111 18.9474 0.455158 18.8475 0.277492 18.6698C0.0998255 18.4922 0 18.2513 0 18V2.84211C0.000877553 2.0886 0.300592 1.36615 0.8334 0.833342C1.36621 0.300534 2.0886 0.000877553 2.84211 0H15.1579C15.9114 0.000877553 16.6338 0.300534 17.1666 0.833342C17.6994 1.36615 17.9991 2.0886 18 2.84211V16.1053C17.9994 16.8588 17.6998 17.5814 17.1669 18.1143C16.634 18.6471 15.9115 18.9467 15.1579 18.9474Z" fill="#2C3149"/>
<path d="M7.92486 13.7129H5.51475C5.26349 13.7129 5.02254 13.613 4.84487 13.4353C4.66721 13.2576 4.56738 13.0167 4.56738 12.7655C4.56738 12.5142 4.66721 12.2731 4.84487 12.0954C5.02254 11.9178 5.26349 11.8181 5.51475 11.8181H7.92486C8.17612 11.8181 8.41713 11.9178 8.5948 12.0954C8.77246 12.2731 8.87223 12.5142 8.87223 12.7655C8.87223 13.0167 8.77246 13.2576 8.5948 13.4353C8.41713 13.613 8.17612 13.7129 7.92486 13.7129Z" fill="#69D2FF"/>
<path d="M12.3637 10.4211H5.51475C5.26349 10.4211 5.02254 10.3212 4.84487 10.1436C4.66721 9.96589 4.56738 9.72499 4.56738 9.47374C4.56738 9.22248 4.66721 8.98158 4.84487 8.80392C5.02254 8.62625 5.26349 8.52637 5.51475 8.52637H12.3637C12.615 8.52637 12.856 8.62625 13.0337 8.80392C13.2113 8.98158 13.3111 9.22248 13.3111 9.47374C13.3111 9.72499 13.2113 9.96589 13.0337 10.1436C12.856 10.3212 12.615 10.4211 12.3637 10.4211Z" fill="#69D2FF"/>
<path d="M12.4845 7.1296H5.51475C5.26349 7.1296 5.02254 7.02972 4.84487 6.85205C4.66721 6.67438 4.56738 6.43349 4.56738 6.18223C4.56738 5.93097 4.66721 5.68985 4.84487 5.51218C5.02254 5.33452 5.26349 5.23486 5.51475 5.23486H12.4845C12.7358 5.23486 12.9768 5.33452 13.1545 5.51218C13.3321 5.68985 13.4319 5.93097 13.4319 6.18223C13.4319 6.43349 13.3321 6.67438 13.1545 6.85205C12.9768 7.02972 12.7358 7.1296 12.4845 7.1296Z" fill="#69D2FF"/>
</svg>
