<svg width="32" height="29" viewBox="0 0 32 29" fill="none" xmlns="http://www.w3.org/2000/svg">
<path d="M15.7585 28.1446C15.557 28.1447 15.3578 28.1017 15.1744 28.0181C14.9909 27.9346 14.8276 27.8126 14.6954 27.6605L0.345012 11.1481C0.150477 10.9242 0.0316409 10.6447 0.00548426 10.3493C-0.0206724 10.0538 0.0471873 9.75765 0.199362 9.50308L2.22861 6.10865C2.32341 5.95 2.44855 5.81148 2.59685 5.70119C2.74515 5.59089 2.91371 5.51099 3.09293 5.46584C3.27215 5.42069 3.45851 5.41148 3.64137 5.43836C3.82422 5.46523 4 5.52771 4.15865 5.62251C4.3173 5.71731 4.45571 5.84251 4.56601 5.99081C4.67631 6.13911 4.75631 6.3077 4.80146 6.48692C4.84661 6.66614 4.85601 6.85239 4.82914 7.03525C4.80227 7.2181 4.73964 7.39401 4.64484 7.55266L3.13839 10.0717L16.8203 25.8145C16.9974 26.0182 17.1121 26.2685 17.1508 26.5357C17.1896 26.8028 17.1507 27.0754 17.0388 27.321C16.9268 27.5667 16.7467 27.7749 16.5197 27.9209C16.2927 28.067 16.0285 28.1445 15.7585 28.1446Z" fill="#69D2FF"/>
<path d="M5.37962 4.98822C5.1309 4.988 4.88669 4.92182 4.67185 4.79651C4.45701 4.6712 4.27922 4.49102 4.15659 4.27464C4.03395 4.05826 3.97086 3.81353 3.97373 3.56483C3.97659 3.31613 4.04532 3.07264 4.17291 2.85915L5.47319 0.685412C5.59809 0.476435 5.77507 0.303585 5.98682 0.183464C6.19858 0.0633421 6.43787 -2.71094e-05 6.68132 8.69998e-09H15.758C16.1313 8.69998e-09 16.4892 0.148369 16.7531 0.412278C17.017 0.676187 17.1653 1.03402 17.1653 1.40724C17.1653 1.78047 17.017 2.13864 16.7531 2.40255C16.4892 2.66646 16.1313 2.81449 15.758 2.81449H7.475L6.58562 4.30281C6.4606 4.51199 6.28343 4.68497 6.07141 4.8051C5.85938 4.92524 5.61979 4.98849 5.37609 4.98822" fill="#69D2FF"/>
<path d="M15.7574 28.1449C15.4875 28.1448 15.2233 28.0673 14.9963 27.9212C14.7693 27.7751 14.5892 27.567 14.4772 27.3213C14.3653 27.0757 14.3264 26.8031 14.3652 26.5359C14.4039 26.2688 14.5186 26.0185 14.6957 25.8148L28.3783 10.072L24.0384 2.81449H15.7582C15.3849 2.81449 15.027 2.66646 14.7631 2.40255C14.4992 2.13864 14.3509 1.78047 14.3509 1.40724C14.3509 1.03402 14.4992 0.676187 14.7631 0.412278C15.027 0.148369 15.3849 8.69999e-09 15.7582 8.69999e-09H24.8349C25.0783 -2.71094e-05 25.3176 0.0633421 25.5294 0.183464C25.7411 0.303585 25.9181 0.476435 26.043 0.685412L31.3166 9.50336C31.4688 9.75793 31.5367 10.0541 31.5105 10.3496C31.4844 10.645 31.3655 10.9245 31.171 11.1483L16.8171 27.6608C16.6849 27.8129 16.5216 27.9349 16.3381 28.0184C16.1547 28.1019 15.9555 28.145 15.7539 28.1449" fill="#69D2FF"/>
<path d="M29.2084 11.9615H12.305C11.8407 11.9615 11.3953 11.8131 11.067 11.5492C10.7387 11.2853 10.5542 10.9274 10.5542 10.5542C10.5542 10.181 10.7387 9.82316 11.067 9.55925C11.3953 9.29534 11.8407 9.14697 12.305 9.14697H29.2084C29.6727 9.14697 30.1181 9.29534 30.4464 9.55925C30.7748 9.82316 30.9592 10.181 30.9592 10.5542C30.9592 10.9274 30.7748 11.2853 30.4464 11.5492C30.1181 11.8131 29.6727 11.9615 29.2084 11.9615Z" fill="#69D2FF"/>
<path d="M7.86713 11.9615H7.03615C6.66292 11.9615 6.30499 11.8131 6.04108 11.5492C5.77717 11.2853 5.62891 10.9274 5.62891 10.5542C5.62891 10.181 5.77717 9.82316 6.04108 9.55925C6.30499 9.29534 6.66292 9.14697 7.03615 9.14697H7.86713C8.24035 9.14697 8.59829 9.29534 8.8622 9.55925C9.12611 9.82316 9.27437 10.181 9.27437 10.5542C9.27437 10.9274 9.12611 11.2853 8.8622 11.5492C8.59829 11.8131 8.24035 11.9615 7.86713 11.9615Z" fill="#69D2FF"/>
<path d="M15.7581 28.1461C15.6069 28.147 15.4564 28.1231 15.3128 28.0757C14.9681 27.9608 14.6813 27.717 14.5122 27.3954C14.3432 27.0738 14.305 26.6993 14.4058 26.3503C14.5465 25.8268 17.4785 14.3023 18.6029 9.88147C18.6484 9.70235 18.7288 9.53376 18.8395 9.38571C18.9501 9.23766 19.0888 9.11288 19.2477 9.01844C19.4065 8.92399 19.5824 8.86178 19.7654 8.83532C19.9483 8.80886 20.1346 8.81862 20.3138 8.86418C20.4929 8.90973 20.6613 8.99026 20.8093 9.10089C20.9574 9.21153 21.0822 9.35018 21.1766 9.50905C21.2711 9.66792 21.3333 9.84388 21.3598 10.0268C21.3862 10.2097 21.3764 10.396 21.3308 10.5751C17.152 27.0075 17.114 27.1235 17.0929 27.1862C16.9995 27.4667 16.82 27.7108 16.58 27.8836C16.3401 28.0564 16.0518 28.1492 15.756 28.1488" fill="#69D2FF"/>
<path d="M19.9655 11.6333C19.6663 11.633 19.3749 11.5373 19.1338 11.3602C18.8926 11.183 18.7142 10.9338 18.6244 10.6483L15.8423 1.82968C15.7425 1.47735 15.7841 1.10024 15.958 0.778025C16.132 0.455815 16.4247 0.213848 16.774 0.10395C17.1233 -0.00594691 17.5016 0.0245953 17.8287 0.189155C18.1558 0.353714 18.4059 0.639575 18.5259 0.985538L21.308 9.80314C21.4205 10.1585 21.3873 10.5441 21.2158 10.8751C21.0443 11.206 20.7485 11.4556 20.3933 11.5687C20.2568 11.6123 20.1144 11.6345 19.9711 11.6347" fill="#69D2FF"/>
</svg>
