<svg width="18" height="17" viewBox="0 0 18 17" fill="none" xmlns="http://www.w3.org/2000/svg">
<path d="M9.00036 16.0746C8.88525 16.0747 8.77147 16.0501 8.66671 16.0024C8.56195 15.9547 8.46865 15.885 8.39313 15.7981L0.197051 6.36716C0.0859438 6.2393 0.0180715 6.07968 0.00313229 5.91094C-0.0118069 5.74221 0.0269507 5.57304 0.113864 5.42764L1.27285 3.48895C1.327 3.39833 1.39847 3.31922 1.48317 3.25622C1.56787 3.19323 1.66414 3.1476 1.7665 3.12181C1.86886 3.09602 1.9753 3.09076 2.07974 3.10611C2.18417 3.12146 2.28457 3.15714 2.37518 3.21129C2.46579 3.26543 2.54484 3.33694 2.60784 3.42164C2.67083 3.50634 2.71653 3.60263 2.74231 3.70499C2.7681 3.80735 2.77347 3.91373 2.75812 4.01816C2.74277 4.1226 2.70701 4.22306 2.65286 4.31368L1.79247 5.75239L9.60678 14.7438C9.70791 14.8601 9.77344 15.0031 9.79556 15.1557C9.81768 15.3082 9.79546 15.4639 9.73154 15.6042C9.66762 15.7445 9.56472 15.8634 9.43507 15.9468C9.30543 16.0303 9.15453 16.0745 9.00036 16.0746Z" fill="black"/>
<path d="M3.07255 2.84898C2.9305 2.84886 2.79102 2.81106 2.66831 2.73949C2.54561 2.66792 2.44407 2.56501 2.37403 2.44142C2.30398 2.31784 2.26795 2.17807 2.26958 2.03602C2.27122 1.89398 2.31047 1.75491 2.38335 1.63298L3.12599 0.391468C3.19732 0.272112 3.29841 0.17339 3.41935 0.104784C3.54029 0.0361773 3.67696 -1.54833e-05 3.816 4.96892e-09H9.00009C9.21326 4.96892e-09 9.41769 0.0847397 9.56842 0.235469C9.71915 0.386199 9.80383 0.590571 9.80383 0.803735C9.80383 1.0169 9.71915 1.22147 9.56842 1.3722C9.41769 1.52293 9.21326 1.60747 9.00009 1.60747H4.26931L3.76134 2.45751C3.68994 2.57699 3.58875 2.67578 3.46766 2.74439C3.34656 2.81301 3.20972 2.84914 3.07054 2.84898" fill="black"/>
<path d="M8.99981 16.0747C8.84564 16.0747 8.69474 16.0304 8.5651 15.947C8.43545 15.8635 8.33254 15.7446 8.26863 15.6044C8.20471 15.4641 8.18249 15.3084 8.20461 15.1558C8.22673 15.0032 8.29226 14.8603 8.39339 14.7439L16.2081 5.75251L13.7294 1.60747H9.00021C8.78705 1.60747 8.58261 1.52293 8.43188 1.3722C8.28116 1.22147 8.19648 1.0169 8.19648 0.803735C8.19648 0.590571 8.28116 0.386199 8.43188 0.235469C8.58261 0.0847397 8.78705 4.96893e-09 9.00021 4.96893e-09H14.1843C14.3233 -1.54833e-05 14.46 0.0361773 14.581 0.104784C14.7019 0.17339 14.803 0.272112 14.8743 0.391468L17.8863 5.42776C17.9732 5.57316 18.012 5.74233 17.997 5.91106C17.9821 6.0798 17.9142 6.23942 17.8031 6.36728L9.60502 15.7982C9.52951 15.8851 9.43622 15.9548 9.33146 16.0025C9.2267 16.0502 9.11291 16.0748 8.9978 16.0747" fill="black"/>
<path d="M16.6825 6.83184H7.02829C6.76308 6.83184 6.50874 6.7471 6.3212 6.59637C6.13367 6.44564 6.02832 6.24126 6.02832 6.0281C6.02832 5.81494 6.13367 5.61056 6.3212 5.45983C6.50874 5.3091 6.76308 5.22437 7.02829 5.22437H16.6825C16.9477 5.22437 17.2021 5.3091 17.3896 5.45983C17.5771 5.61056 17.6825 5.81494 17.6825 6.0281C17.6825 6.24126 17.5771 6.44564 17.3896 6.59637C17.2021 6.7471 16.9477 6.83184 16.6825 6.83184Z" fill="black"/>
<path d="M4.49318 6.83184H4.01858C3.80541 6.83184 3.60098 6.7471 3.45025 6.59637C3.29952 6.44564 3.21484 6.24126 3.21484 6.0281C3.21484 5.81494 3.29952 5.61056 3.45025 5.45983C3.60098 5.3091 3.80541 5.22437 4.01858 5.22437H4.49318C4.70635 5.22437 4.91078 5.3091 5.06151 5.45983C5.21224 5.61056 5.29692 5.81494 5.29692 6.0281C5.29692 6.24126 5.21224 6.44564 5.06151 6.59637C4.91078 6.7471 4.70635 6.83184 4.49318 6.83184Z" fill="black"/>
<path d="M9.00021 16.0753C8.91379 16.0758 8.82788 16.0622 8.74583 16.0351C8.54899 15.9695 8.38515 15.8302 8.2886 15.6466C8.19205 15.4629 8.17028 15.249 8.22782 15.0497C8.30819 14.7507 9.98277 8.16857 10.625 5.64364C10.651 5.54133 10.6969 5.44504 10.7601 5.36048C10.8233 5.27593 10.9025 5.20466 10.9932 5.15072C11.084 5.09678 11.1844 5.06125 11.2889 5.04613C11.3934 5.03102 11.4998 5.0366 11.6021 5.06262C11.7044 5.08863 11.8006 5.13463 11.8851 5.19781C11.9697 5.261 12.041 5.34019 12.0949 5.43093C12.1489 5.52166 12.1844 5.62217 12.1995 5.72664C12.2146 5.83111 12.209 5.93751 12.183 6.03981C9.79631 15.425 9.77461 15.4913 9.76255 15.5271C9.70918 15.6873 9.60669 15.8267 9.46962 15.9254C9.33256 16.0241 9.1679 16.0771 8.99901 16.0769" fill="black"/>
<path d="M11.4029 6.64417C11.232 6.64401 11.0656 6.58935 10.9279 6.48818C10.7901 6.387 10.6882 6.24463 10.637 6.0816L9.04797 1.04491C8.991 0.843684 9.01472 0.628297 9.11407 0.444269C9.21343 0.260241 9.3806 0.122044 9.58009 0.059277C9.77959 -0.00348995 9.99569 0.013954 10.1825 0.107941C10.3693 0.201927 10.5122 0.365195 10.5807 0.562789L12.1697 5.59889C12.2339 5.80187 12.215 6.02207 12.117 6.21111C12.0191 6.40014 11.8501 6.54268 11.6473 6.60728C11.5693 6.6322 11.488 6.64484 11.4061 6.64496" fill="black"/>
</svg>
