<svg width="22" height="20" viewBox="0 0 22 20" fill="none" xmlns="http://www.w3.org/2000/svg">
<path d="M11.0004 19.8603C10.8598 19.8604 10.7207 19.8304 10.5926 19.7721C10.4646 19.7138 10.3506 19.6286 10.2583 19.5224L0.24084 7.99573C0.105042 7.83945 0.0220873 7.64435 0.00382835 7.43812C-0.0144306 7.23189 0.0329397 7.02513 0.139167 6.84742L1.55571 4.4779C1.62189 4.36715 1.70924 4.27046 1.81276 4.19346C1.91628 4.11647 2.03395 4.0607 2.15906 4.02918C2.28417 3.99767 2.41426 3.99124 2.5419 4.01C2.66955 4.02875 2.79225 4.07237 2.903 4.13854C3.01374 4.20472 3.11037 4.29212 3.18736 4.39564C3.26435 4.49916 3.3202 4.61685 3.35172 4.74196C3.38323 4.86706 3.3898 4.99708 3.37104 5.12472C3.35228 5.25237 3.30856 5.37516 3.24238 5.48591L2.19079 7.24434L11.7416 18.2338C11.8652 18.376 11.9453 18.5507 11.9724 18.7372C11.9994 18.9237 11.9722 19.114 11.8941 19.2855C11.816 19.4569 11.6902 19.6023 11.5318 19.7042C11.3733 19.8062 11.1889 19.8603 11.0004 19.8603Z" fill="black"/>
<path d="M3.7549 3.69571C3.58128 3.69556 3.41081 3.64936 3.26084 3.56189C3.11086 3.47441 2.98676 3.34863 2.90115 3.19759C2.81555 3.04654 2.7715 2.8757 2.7735 2.7021C2.7755 2.52849 2.82348 2.35852 2.91254 2.20949L3.82022 0.692083C3.90741 0.546205 4.03095 0.425545 4.17877 0.341692C4.32659 0.25784 4.49363 0.213604 4.66357 0.213623H10.9997C11.2602 0.213623 11.5101 0.317194 11.6943 0.501419C11.8785 0.685644 11.982 0.935432 11.982 1.19597C11.982 1.4565 11.8785 1.70653 11.6943 1.89075C11.5101 2.07498 11.2602 2.17831 10.9997 2.17831H5.21761L4.59676 3.21725C4.5095 3.36327 4.38582 3.48402 4.23781 3.56788C4.08981 3.65174 3.92255 3.6959 3.75244 3.69571" fill="black"/>
<path d="M10.9997 19.8605C10.8112 19.8604 10.6268 19.8063 10.4683 19.7043C10.3099 19.6024 10.1841 19.4571 10.106 19.2856C10.0279 19.1141 10.0007 18.9238 10.0277 18.7374C10.0548 18.5509 10.1349 18.3762 10.2585 18.234L19.8098 7.24447L16.7803 2.17831H11.0002C10.7396 2.17831 10.4898 2.07498 10.3055 1.89075C10.1213 1.70653 10.0178 1.4565 10.0178 1.19597C10.0178 0.935432 10.1213 0.685644 10.3055 0.501419C10.4898 0.317194 10.7396 0.213623 11.0002 0.213623H17.3363C17.5062 0.213604 17.6733 0.25784 17.8211 0.341692C17.9689 0.425545 18.0924 0.546205 18.1796 0.692083L21.8609 6.84755C21.9672 7.02526 22.0145 7.23203 21.9963 7.43826C21.978 7.64448 21.8951 7.83958 21.7593 7.99586L11.7394 19.5226C11.6471 19.6287 11.5331 19.7139 11.405 19.7722C11.277 19.8305 11.1379 19.8606 10.9972 19.8605" fill="black"/>
<path d="M20.3899 8.56368H8.59035C8.26621 8.56368 7.95534 8.46011 7.72613 8.27589C7.49693 8.09166 7.36816 7.84188 7.36816 7.58134C7.36816 7.32081 7.49693 7.07102 7.72613 6.88679C7.95534 6.70257 8.26621 6.599 8.59035 6.599H20.3899C20.7141 6.599 21.025 6.70257 21.2542 6.88679C21.4834 7.07102 21.6121 7.32081 21.6121 7.58134C21.6121 7.84188 21.4834 8.09166 21.2542 8.27589C21.025 8.46011 20.7141 8.56368 20.3899 8.56368Z" fill="#69D2FF"/>
<path d="M5.4921 8.56368H4.91203C4.6515 8.56368 4.40163 8.46011 4.21741 8.27589C4.03318 8.09166 3.92969 7.84188 3.92969 7.58134C3.92969 7.32081 4.03318 7.07102 4.21741 6.88679C4.40163 6.70257 4.6515 6.599 4.91203 6.599H5.4921C5.75264 6.599 6.0025 6.70257 6.18673 6.88679C6.37095 7.07102 6.47445 7.32081 6.47445 7.58134C6.47445 7.84188 6.37095 8.09166 6.18673 8.27589C6.0025 8.46011 5.75264 8.56368 5.4921 8.56368Z" fill="#69D2FF"/>
<path d="M11.0001 19.8612C10.8945 19.8618 10.7895 19.8452 10.6892 19.8121C10.4487 19.7318 10.2484 19.5617 10.1304 19.3372C10.0124 19.1127 9.98578 18.8513 10.0561 18.6076C10.1543 18.2422 12.2011 10.1974 12.986 7.11139C13.0177 6.98635 13.0739 6.86866 13.1511 6.76531C13.2283 6.66196 13.3252 6.57486 13.4361 6.50893C13.547 6.44301 13.6697 6.39958 13.7974 6.38111C13.9251 6.36263 14.0552 6.36945 14.1802 6.40125C14.3053 6.43305 14.4228 6.48927 14.5262 6.56649C14.6295 6.64372 14.7166 6.74051 14.7826 6.85141C14.8485 6.96231 14.8919 7.08515 14.9104 7.21283C14.9289 7.34052 14.922 7.47057 14.8902 7.5956C11.9732 19.0664 11.9466 19.1474 11.9319 19.1911C11.8667 19.387 11.7414 19.5574 11.5739 19.678C11.4064 19.7986 11.2051 19.8634 10.9987 19.8631" fill="#69D2FF"/>
<path d="M13.9369 8.33423C13.728 8.33403 13.5246 8.26722 13.3563 8.14356C13.1879 8.01991 13.0634 7.84589 13.0007 7.64663L11.0586 1.49068C10.989 1.24474 11.018 0.981487 11.1394 0.756564C11.2609 0.531641 11.4652 0.362734 11.709 0.286018C11.9528 0.209303 12.217 0.230624 12.4453 0.345496C12.6736 0.460369 12.8482 0.659918 12.932 0.901422L14.8741 7.05665C14.9525 7.30475 14.9294 7.57388 14.8097 7.80492C14.69 8.03597 14.4835 8.21018 14.2355 8.28914C14.1403 8.31959 14.0409 8.33504 13.9408 8.33519" fill="#69D2FF"/>
</svg>
