<svg width="25" height="22" viewBox="0 0 25 22" fill="none" xmlns="http://www.w3.org/2000/svg">
<path d="M3.57143 1.73684C3.57143 2.69607 2.77194 3.47368 1.78571 3.47368C0.799491 3.47368 0 2.69607 0 1.73684C0 0.777611 0.799491 0 1.78571 0C2.77194 0 3.57143 0.777611 3.57143 1.73684Z" fill="#BD00FF"/>
<path d="M3.57143 11C3.57143 11.9593 2.77194 12.7369 1.78571 12.7369C0.799491 12.7369 0 11.9593 0 11C0 10.0408 0.799491 9.26318 1.78571 9.26318C2.77194 9.26318 3.57143 10.0408 3.57143 11Z" fill="#BD00FF"/>
<path d="M3.57143 20.2632C3.57143 21.2224 2.77194 22.0001 1.78571 22.0001C0.799491 22.0001 0 21.2224 0 20.2632C0 19.304 0.799491 18.5264 1.78571 18.5264C2.77194 18.5264 3.57143 19.304 3.57143 20.2632Z" fill="#BD00FF"/>
<rect x="5.95215" width="19.0476" height="3.47368" rx="1.73684" fill="black"/>
<rect x="5.95215" y="18.5264" width="19.0476" height="3.47368" rx="1.73684" fill="black"/>
<rect x="5.95215" y="9.26318" width="19.0476" height="3.47368" rx="1.73684" fill="black"/>
</svg>
