<svg width="40" height="40" viewBox="0 0 40 40" fill="none" xmlns="http://www.w3.org/2000/svg">
<path d="M20 40C16.0444 40 12.1776 38.827 8.88863 36.6294C5.59965 34.4318 3.03618 31.3083 1.52242 27.6538C0.00867128 23.9993 -0.387403 19.9778 0.384301 16.0982C1.15601 12.2185 3.06082 8.65497 5.85787 5.85792C8.65492 3.06087 12.2186 1.15599 16.0982 0.384286C19.9779 -0.387419 23.9992 0.00871658 27.6537 1.52247C31.3082 3.03622 34.4318 5.5997 36.6294 8.88868C38.827 12.1777 40 16.0444 40 20C39.9942 25.3026 37.8852 30.3863 34.1357 34.1357C30.3862 37.8852 25.3026 39.9942 20 40ZM20 4.00001C16.8355 4.00001 13.7421 4.93868 11.1109 6.69679C8.47968 8.45489 6.42892 10.9533 5.21792 13.877C4.00692 16.8006 3.69009 20.0179 4.30746 23.1216C4.92482 26.2253 6.44866 29.0763 8.6863 31.314C10.9239 33.5516 13.7749 35.075 16.8786 35.6924C19.9823 36.3098 23.1993 35.9932 26.1229 34.7822C29.0466 33.5712 31.5454 31.5204 33.3036 28.8892C35.0617 26.258 36 23.1645 36 20C35.995 15.7581 34.3077 11.6914 31.3082 8.6919C28.3087 5.69241 24.2419 4.00504 20 4.00001Z" fill="#ffffff"/>
<path d="M29.485 21.9995H19.999C19.4686 21.9995 18.9599 21.7886 18.5848 21.4136C18.2098 21.0385 17.999 20.5299 17.999 19.9995V9.85547C17.999 9.32504 18.2098 8.81648 18.5848 8.44141C18.9599 8.06633 19.4686 7.85547 19.999 7.85547C20.5295 7.85547 21.0382 8.06633 21.4133 8.44141C21.7883 8.81648 21.999 9.32504 21.999 9.85547V17.9995H29.485C30.0155 17.9995 30.5242 18.2104 30.8993 18.5854C31.2744 18.9605 31.485 19.4691 31.485 19.9995C31.485 20.5299 31.2744 21.0385 30.8993 21.4136C30.5242 21.7886 30.0155 21.9995 29.485 21.9995Z" fill="#ffffff"/>
</svg>
