<svg width="23" height="23" viewBox="0 0 23 23" fill="none" xmlns="http://www.w3.org/2000/svg">
<path d="M11.4225 23H2.86263C2.10369 22.999 1.3761 22.6713 0.839446 22.0886C0.302797 21.5059 0.000909088 20.7159 0 19.8919V3.10811C0.00106022 2.28414 0.302995 1.49424 0.839612 0.911603C1.37623 0.328969 2.10374 0.00115114 2.86263 0H11.4225C11.7261 0 12.0174 0.131002 12.2321 0.364156C12.4469 0.597309 12.5675 0.913515 12.5675 1.24324C12.5675 1.57297 12.4469 1.88922 12.2321 2.12237C12.0174 2.35552 11.7261 2.48649 11.4225 2.48649H2.86263C2.71078 2.48649 2.56516 2.55199 2.45779 2.66856C2.35042 2.78514 2.2901 2.94324 2.2901 3.10811V19.8919C2.2901 20.0568 2.35042 20.2149 2.45779 20.3314C2.56516 20.448 2.71078 20.5135 2.86263 20.5135H11.4225C11.7261 20.5135 12.0174 20.6445 12.2321 20.8777C12.4469 21.1108 12.5675 21.427 12.5675 21.7568C12.5675 22.0865 12.4469 22.4027 12.2321 22.6359C12.0174 22.869 11.7261 23 11.4225 23Z" fill="#2C3149"/>
<path d="M15.3318 19.8256C15.1054 19.8256 14.884 19.7526 14.6958 19.616C14.5075 19.4794 14.3608 19.2853 14.2742 19.0581C14.1875 18.831 14.1648 18.581 14.209 18.3399C14.2532 18.0988 14.3622 17.8773 14.5223 17.7034L20.2349 11.5009L14.5223 5.29834C14.3137 5.06386 14.1983 4.74982 14.2009 4.42385C14.2035 4.09787 14.3239 3.78604 14.5362 3.55553C14.7485 3.32503 15.0357 3.19429 15.3359 3.19145C15.6362 3.18862 15.9254 3.31393 16.1414 3.54039L22.6641 10.6219C22.7705 10.7374 22.8549 10.8744 22.9125 11.0253C22.9701 11.1762 22.9997 11.3379 22.9997 11.5012C22.9997 11.6645 22.9701 11.8262 22.9125 11.9771C22.8549 12.128 22.7705 12.265 22.6641 12.3805L16.1414 19.4614C16.0352 19.577 15.909 19.6688 15.7701 19.7313C15.6312 19.7938 15.4822 19.8259 15.3318 19.8256Z" fill="#00FFB2"/>
<path d="M21.5768 12.7438H9.53714C9.23345 12.7438 8.94221 12.6128 8.72748 12.3797C8.51274 12.1465 8.39209 11.8303 8.39209 11.5006C8.39209 11.1708 8.51274 10.8546 8.72748 10.6214C8.94221 10.3883 9.23345 10.2573 9.53714 10.2573H21.5768C21.8805 10.2573 22.1717 10.3883 22.3864 10.6214C22.6012 10.8546 22.7218 11.1708 22.7218 11.5006C22.7218 11.8303 22.6012 12.1465 22.3864 12.3797C22.1717 12.6128 21.8805 12.7438 21.5768 12.7438Z" fill="#00FFB2"/>
</svg>
