<svg width="23" height="23" viewBox="0 0 23 23" fill="none" xmlns="http://www.w3.org/2000/svg">
<path d="M11.4225 23H2.86263C2.10369 22.999 1.3761 22.6713 0.839446 22.0886C0.302797 21.5059 0.000909088 20.7159 0 19.8919V3.10811C0.00106022 2.28414 0.302995 1.49424 0.839612 0.911603C1.37623 0.328969 2.10374 0.00115114 2.86263 0H11.4225C11.7261 0 12.0174 0.131002 12.2321 0.364156C12.4469 0.597309 12.5675 0.913515 12.5675 1.24324C12.5675 1.57297 12.4469 1.88922 12.2321 2.12237C12.0174 2.35552 11.7261 2.48649 11.4225 2.48649H2.86263C2.71078 2.48649 2.56516 2.55199 2.45779 2.66856C2.35042 2.78514 2.2901 2.94324 2.2901 3.10811V19.8919C2.2901 20.0568 2.35042 20.2149 2.45779 20.3314C2.56516 20.448 2.71078 20.5135 2.86263 20.5135H11.4225C11.7261 20.5135 12.0174 20.6445 12.2321 20.8777C12.4469 21.1108 12.5675 21.427 12.5675 21.7568C12.5675 22.0865 12.4469 22.4027 12.2321 22.6359C12.0174 22.869 11.7261 23 11.4225 23Z" fill="#2C3149"/>
<path d="M15.3323 19.8255C15.1059 19.8254 14.8845 19.7524 14.6963 19.6158C14.508 19.4792 14.3613 19.2851 14.2747 19.058C14.188 18.8308 14.1653 18.5809 14.2095 18.3397C14.2537 18.0986 14.3627 17.8771 14.5228 17.7032L20.2354 11.5007L14.5228 5.29816C14.3142 5.06368 14.1988 4.74964 14.2014 4.42366C14.204 4.09769 14.3244 3.78586 14.5367 3.55535C14.749 3.32484 15.0362 3.1941 15.3364 3.19127C15.6367 3.18844 15.9259 3.31374 16.1419 3.54021L22.6646 10.6217C22.771 10.7372 22.8554 10.8743 22.913 11.0251C22.9705 11.176 23.0002 11.3377 23.0002 11.501C23.0002 11.6643 22.9705 11.826 22.913 11.9769C22.8554 12.1278 22.771 12.2648 22.6646 12.3803L16.1419 19.4612C16.0357 19.5769 15.9095 19.6686 15.7706 19.7311C15.6317 19.7936 15.4827 19.8257 15.3323 19.8255Z" fill="#A6C9FF"/>
<path d="M21.5773 12.7439H9.53763C9.23394 12.7439 8.9427 12.6129 8.72796 12.3798C8.51322 12.1466 8.39258 11.8304 8.39258 11.5007C8.39258 11.171 8.51322 10.8547 8.72796 10.6216C8.9427 10.3884 9.23394 10.2574 9.53763 10.2574H21.5773C21.8809 10.2574 22.1722 10.3884 22.3869 10.6216C22.6017 10.8547 22.7223 11.171 22.7223 11.5007C22.7223 11.8304 22.6017 12.1466 22.3869 12.3798C22.1722 12.6129 21.8809 12.7439 21.5773 12.7439Z" fill="#A6C9FF"/>
</svg>
