<svg width="22" height="18" viewBox="0 0 22 18" fill="none" xmlns="http://www.w3.org/2000/svg">
<path d="M20.8718 9.7591H1.12821C0.828987 9.7591 0.54204 9.64022 0.33046 9.42864C0.11888 9.21706 0 8.93011 0 8.63089C0 8.33167 0.11888 8.04473 0.33046 7.83315C0.54204 7.62157 0.828987 7.50269 1.12821 7.50269H20.8718C21.171 7.50269 21.458 7.62157 21.6696 7.83315C21.8812 8.04473 22 8.33167 22 8.63089C22 8.93011 21.8812 9.21706 21.6696 9.42864C21.458 9.64022 21.171 9.7591 20.8718 9.7591Z" fill="#00FFB2"/>
<path d="M14.2904 2.25641H1.12821C0.828987 2.25641 0.54204 2.13753 0.33046 1.92595C0.11888 1.71437 0 1.42742 0 1.12821C0 0.828987 0.11888 0.54204 0.33046 0.33046C0.54204 0.11888 0.828987 0 1.12821 0H14.2904C14.5896 0 14.8766 0.11888 15.0882 0.33046C15.2997 0.54204 15.4186 0.828987 15.4186 1.12821C15.4186 1.42742 15.2997 1.71437 15.0882 1.92595C14.8766 2.13753 14.5896 2.25641 14.2904 2.25641Z" fill="#2C3149"/>
<path d="M14.2904 17.4288H1.12821C0.828987 17.4288 0.54204 17.3099 0.33046 17.0983C0.11888 16.8867 0 16.5998 0 16.3006C0 16.0013 0.11888 15.7144 0.33046 15.5028C0.54204 15.2912 0.828987 15.1724 1.12821 15.1724H14.2904C14.5896 15.1724 14.8766 15.2912 15.0882 15.5028C15.2997 15.7144 15.4186 16.0013 15.4186 16.3006C15.4186 16.5998 15.2997 16.8867 15.0882 17.0983C14.8766 17.3099 14.5896 17.4288 14.2904 17.4288Z" fill="#2C3149"/>
</svg>
