<svg width="32" height="28" viewBox="0 0 32 28" fill="none" xmlns="http://www.w3.org/2000/svg">
<path d="M26.9037 27.1023H4.61247C3.38967 27.1011 2.21729 26.6148 1.35264 25.7502C0.48799 24.8855 0.00170925 23.7131 0.000488281 22.4903V17.7123C0.000488281 17.3046 0.162432 16.9136 0.450737 16.6253C0.739041 16.337 1.13009 16.175 1.53782 16.175C1.94554 16.175 2.33654 16.337 2.62485 16.6253C2.91315 16.9136 3.07514 17.3046 3.07514 17.7123V22.4903C3.07514 22.8981 3.23709 23.2891 3.52539 23.5774C3.8137 23.8657 4.20475 24.0277 4.61247 24.0277H26.9037C27.3114 24.0277 27.7025 23.8657 27.9908 23.5774C28.2791 23.2891 28.4411 22.8981 28.4411 22.4903V14.4663H22.4278C21.8766 15.7804 20.9494 16.9024 19.7628 17.6915C18.5761 18.4805 17.1828 18.9015 15.7577 18.9015C14.3327 18.9015 12.9394 18.4805 11.7527 17.6915C10.566 16.9024 9.63889 15.7804 9.08765 14.4663H1.53782C1.13009 14.4663 0.739041 14.3043 0.450737 14.016C0.162432 13.7277 0.000488281 13.3367 0.000488281 12.9289C0.000488281 12.5212 0.162432 12.1302 0.450737 11.8419C0.739041 11.5536 1.13009 11.3916 1.53782 11.3916H10.2068C10.5557 11.3916 10.8941 11.5102 11.1667 11.7279C11.4392 11.9457 11.6296 12.2497 11.7065 12.5899C11.9119 13.5112 12.4252 14.3348 13.1617 14.9252C13.8982 15.5155 14.8139 15.8372 15.7577 15.8372C16.7016 15.8372 17.6172 15.5155 18.3537 14.9252C19.0902 14.3348 19.6035 13.5112 19.809 12.5899C19.8859 12.2497 20.0762 11.9457 20.3487 11.7279C20.6213 11.5102 20.9598 11.3916 21.3086 11.3916H29.9784C30.3861 11.3916 30.7771 11.5536 31.0654 11.8419C31.3537 12.1302 31.5157 12.5212 31.5157 12.9289V22.4903C31.5145 23.7131 31.0282 24.8855 30.1636 25.7502C29.2989 26.6148 28.1265 27.1011 26.9037 27.1023Z" fill="#C8D6DC"/>
<path d="M15.758 18.9014C14.3316 18.9076 12.9355 18.4892 11.7476 17.6993C10.5597 16.9095 9.63377 15.7841 9.08759 14.4663H1.53776C1.28676 14.4663 1.03955 14.4049 0.817744 14.2874C0.595939 14.17 0.406271 13.9999 0.265314 13.7923C0.124357 13.5846 0.0363914 13.3455 0.0091082 13.096C-0.018175 12.8465 0.0160593 12.5941 0.108804 12.3609L4.63545 0.97006C4.74903 0.683973 4.94592 0.438562 5.20055 0.265612C5.45517 0.0926626 5.75584 0.000132183 6.06365 0H25.4517C25.7595 0.000132183 26.0602 0.0926626 26.3148 0.265612C26.5694 0.438562 26.7662 0.683973 26.8798 0.97006L31.4065 12.3609C31.4992 12.5941 31.5335 12.8464 31.5062 13.0958C31.479 13.3453 31.3911 13.5843 31.2502 13.7919C31.1093 13.9996 30.9198 14.1696 30.6981 14.2872C30.4763 14.4047 30.2293 14.4662 29.9783 14.4663H22.4269C21.8812 15.7841 20.9556 16.9096 19.7679 17.6994C18.5802 18.4893 17.1844 18.9077 15.758 18.9014ZM3.80303 11.3916H10.2068C10.5556 11.3916 10.8941 11.5102 11.1666 11.7279C11.4391 11.9457 11.6295 12.2497 11.7064 12.5899C11.9122 13.5108 12.4256 14.334 13.162 14.924C13.8983 15.514 14.8137 15.8354 15.7572 15.8354C16.7008 15.8354 17.6162 15.514 18.3526 14.924C19.0889 14.334 19.6023 13.5108 19.8081 12.5899C19.885 12.2497 20.0754 11.9457 20.3479 11.7279C20.6204 11.5102 20.9589 11.3916 21.3078 11.3916H27.7146L24.4094 3.07466H7.10747L3.80303 11.3916Z" fill="#69D2FF"/>
</svg>
