<svg width="19" height="17" viewBox="0 0 19 17" fill="none" xmlns="http://www.w3.org/2000/svg">
<path d="M16.2196 16.3385H2.78131C2.04415 16.3378 1.33738 16.0446 0.816122 15.5234C0.294868 15.0021 0.00171262 14.2954 0.000976562 13.5582V10.6778C0.000976562 10.432 0.0986042 10.1962 0.272409 10.0224C0.446214 9.84862 0.681958 9.75098 0.927756 9.75098C1.17355 9.75098 1.40927 9.84862 1.58307 10.0224C1.75688 10.1962 1.85453 10.432 1.85453 10.6778V13.5582C1.85453 13.804 1.95216 14.0397 2.12597 14.2135C2.29977 14.3873 2.53552 14.485 2.78131 14.485H16.2196C16.4654 14.485 16.7011 14.3873 16.8749 14.2135C17.0487 14.0397 17.1464 13.804 17.1464 13.5582V8.72087H13.5213C13.189 9.51309 12.6301 10.1895 11.9147 10.6652C11.1993 11.1409 10.3593 11.3947 9.50024 11.3947C8.64114 11.3947 7.80118 11.1409 7.0858 10.6652C6.37041 10.1895 5.81149 9.51309 5.47918 8.72087H0.927756C0.681958 8.72087 0.446214 8.62322 0.272409 8.44941C0.0986042 8.27561 0.000976562 8.03989 0.000976562 7.79409C0.000976562 7.54829 0.0986042 7.31256 0.272409 7.13876C0.446214 6.96495 0.681958 6.86731 0.927756 6.86731H6.15387C6.36417 6.86729 6.56822 6.93878 6.73251 7.07006C6.8968 7.20135 7.01157 7.3846 7.05794 7.58973C7.1818 8.14509 7.49124 8.64165 7.93522 8.99752C8.37921 9.35339 8.93123 9.54731 9.50024 9.54731C10.0692 9.54731 10.6212 9.35339 11.0652 8.99752C11.5092 8.64165 11.8187 8.14509 11.9425 7.58973C11.9889 7.3846 12.1036 7.20135 12.2679 7.07006C12.4322 6.93878 12.6363 6.86729 12.8466 6.86731H18.0732C18.319 6.86731 18.5547 6.96495 18.7285 7.13876C18.9023 7.31256 18.9999 7.54829 18.9999 7.79409V13.5582C18.9992 14.2954 18.7061 15.0021 18.1848 15.5234C17.6635 16.0446 16.9568 16.3378 16.2196 16.3385Z" fill="black"/>
<path d="M9.49974 11.3947C8.63979 11.3985 7.79817 11.1462 7.08205 10.6701C6.36593 10.1939 5.80772 9.51543 5.47846 8.72099H0.927038C0.775722 8.72104 0.626693 8.68402 0.492978 8.61319C0.359262 8.54237 0.244921 8.43987 0.159945 8.31467C0.0749685 8.18947 0.0219386 8.04537 0.00549088 7.89495C-0.0109568 7.74453 0.00968133 7.59237 0.0655924 7.45176L2.79448 0.584802C2.86296 0.412333 2.98165 0.264387 3.13515 0.160125C3.28865 0.0558617 3.46991 7.96868e-05 3.65548 0H15.3436C15.5291 7.96868e-05 15.7104 0.0558617 15.8639 0.160125C16.0174 0.264387 16.1361 0.412333 16.2045 0.584802L18.9334 7.45176C18.9893 7.59233 19.01 7.74446 18.9935 7.89484C18.9771 8.04522 18.9241 8.18929 18.8392 8.31448C18.7543 8.43967 18.64 8.54217 18.5063 8.61303C18.3727 8.68389 18.2237 8.72096 18.0724 8.72099H13.5201C13.1911 9.51543 12.6331 10.1939 11.9171 10.6701C11.2011 11.1463 10.3596 11.3985 9.49974 11.3947ZM2.29266 6.86744H6.15315C6.36345 6.86741 6.5675 6.93891 6.73179 7.07019C6.89609 7.20147 7.01085 7.38473 7.05722 7.58986C7.18128 8.14498 7.49078 8.64128 7.9347 8.99694C8.37862 9.3526 8.93044 9.5464 9.49926 9.5464C10.0681 9.5464 10.6199 9.3526 11.0639 8.99694C11.5078 8.64128 11.8173 8.14498 11.9413 7.58986C11.9877 7.38473 12.1025 7.20147 12.2668 7.07019C12.4311 6.93891 12.6351 6.86741 12.8454 6.86744H16.7078L14.7152 1.85356H4.28474L2.29266 6.86744Z" fill="#69D2FF"/>
</svg>
