<svg width="20" height="20" viewBox="0 0 20 20" fill="none" xmlns="http://www.w3.org/2000/svg">
<path d="M10 20C9.73478 20 9.48043 19.8947 9.29289 19.7072C9.10536 19.5196 9 19.2652 9 19V1C9 0.734784 9.10536 0.480505 9.29289 0.292969C9.48043 0.105432 9.73478 0 10 0C10.2652 0 10.5196 0.105432 10.7071 0.292969C10.8946 0.480505 11 0.734784 11 1V19C11 19.2652 10.8946 19.5196 10.7071 19.7072C10.5196 19.8947 10.2652 20 10 20Z" fill="white"/>
<path d="M19 11H1C0.734784 11 0.480429 10.8947 0.292892 10.7072C0.105356 10.5196 0 10.2652 0 10C0 9.73478 0.105356 9.48051 0.292892 9.29297C0.480429 9.10543 0.734784 9 1 9H19C19.2652 9 19.5196 9.10543 19.7071 9.29297C19.8946 9.48051 20 9.73478 20 10C20 10.2652 19.8946 10.5196 19.7071 10.7072C19.5196 10.8947 19.2652 11 19 11Z" fill="white"/>
</svg>
