<svg width="12" height="12" viewBox="0 0 12 12" fill="none" xmlns="http://www.w3.org/2000/svg">
<path d="M5.99697 11.999C5.91693 11.9992 5.83764 11.9836 5.76364 11.9531C5.68964 11.9226 5.62238 11.8779 5.56569 11.8214L3.30782 9.58172L1.10231 11.8049C0.987886 11.9202 0.832319 11.9854 0.669834 11.986C0.507348 11.9867 0.351257 11.9228 0.235896 11.8084C0.120534 11.694 0.0553532 11.5384 0.0546926 11.376C0.0540319 11.2135 0.117954 11.0575 0.232381 10.9421L2.87007 8.28409C2.98441 8.16876 3.13988 8.10354 3.30229 8.10277H3.30506C3.46663 8.1028 3.62163 8.16665 3.73634 8.28041L5.99667 10.5225L6.50423 10.0166C6.56433 9.95661 6.61134 9.88482 6.64228 9.80575C6.67323 9.72668 6.68746 9.64205 6.68405 9.55721L6.65126 8.7833C6.63394 8.36405 6.70269 7.9457 6.85325 7.55403C7.00382 7.16236 7.23302 6.80566 7.52673 6.50593L8.30078 5.71854C8.41374 5.60366 8.56744 5.53789 8.72855 5.53548C8.88966 5.53308 9.04522 5.59422 9.16156 5.70568L9.9886 6.49735L10.7756 5.70476L8.04932 3.00016C7.93396 2.88571 7.86879 2.73015 7.86816 2.56767C7.86752 2.40518 7.93149 2.24909 8.04596 2.13375C8.16042 2.01841 8.31603 1.95327 8.47855 1.95264C8.64106 1.95201 8.79716 2.01594 8.91252 2.13039L11.6388 4.83527C11.869 5.06436 11.9989 5.37535 12.0003 5.70009C12.0016 6.02483 11.8741 6.33685 11.6458 6.5678L10.8586 7.36009C10.6317 7.58629 10.3255 7.71508 10.0052 7.71908C9.68485 7.72309 9.37558 7.60199 9.14316 7.38153L8.75353 7.00882L8.39942 7.36531C8.2232 7.54514 8.08566 7.7591 7.99521 7.99405C7.90477 8.22901 7.86335 8.47998 7.8735 8.73154L7.90656 9.50575C7.9173 9.76057 7.87493 10.0149 7.78211 10.2524C7.6893 10.49 7.54808 10.7057 7.36743 10.8858L6.42859 11.8217C6.37177 11.8784 6.30433 11.9234 6.23011 11.954C6.15589 11.9847 6.07636 12.0004 5.99607 12.0002" fill="black"/>
<path d="M1.97409 8.00841C1.81246 8.00871 1.65733 7.94481 1.54281 7.83077L0.180605 6.47925C0.123368 6.42233 0.0779583 6.35467 0.0469647 6.28014C0.0159712 6.20561 0 6.12568 0 6.04497C0 5.96425 0.0159712 5.88434 0.0469647 5.80981C0.0779583 5.73529 0.123368 5.66762 0.180605 5.6107L1.12588 4.66895C1.30507 4.49273 1.51803 4.35451 1.75194 4.26257C1.98586 4.17063 2.23594 4.12687 2.48719 4.13391L3.25605 4.16086C3.51064 4.16917 3.7642 4.12473 4.00079 4.03033C4.23738 3.93593 4.45185 3.79362 4.63078 3.61234L4.97509 3.26229L4.59495 2.8715C4.37227 2.6407 4.24849 2.33211 4.24997 2.01143C4.25146 1.69075 4.3781 1.38331 4.60292 1.15459L5.38954 0.362305C5.50252 0.247616 5.63717 0.156525 5.78568 0.0943274C5.93418 0.0321294 6.09357 6.95675e-05 6.25458 4.2405e-06L6.25917 4.2405e-06C6.41938 -0.000418497 6.57808 0.0307699 6.7262 0.0917852C6.87433 0.152801 7.00896 0.242446 7.12238 0.355576L9.84861 3.06016C9.96397 3.17461 10.0291 3.33019 10.0298 3.49267C10.0304 3.65516 9.96645 3.81123 9.85198 3.92657C9.73751 4.04191 9.5819 4.10707 9.41939 4.1077C9.25687 4.10833 9.10077 4.04438 8.98541 3.92993L6.25917 1.22535L5.47315 2.01734L6.26957 2.8372C6.38158 2.95193 6.44412 3.10601 6.44378 3.26634C6.44344 3.42667 6.38023 3.58046 6.26774 3.69472L5.50348 4.47202C5.20533 4.77431 4.84782 5.0116 4.45342 5.16894C4.05903 5.32627 3.63632 5.40025 3.21193 5.3862L2.44306 5.35895C2.35936 5.35697 2.27609 5.37174 2.19818 5.40241C2.12027 5.43307 2.04931 5.479 1.98942 5.5375L1.48092 6.04435L2.40537 6.96313C2.49155 7.04859 2.55041 7.15772 2.57446 7.27667C2.59851 7.39561 2.58668 7.519 2.54047 7.63121C2.49427 7.74342 2.41576 7.83939 2.31492 7.90693C2.21408 7.97446 2.09546 8.01053 1.97409 8.01056" fill="black"/>
</svg>
