<svg width="20" height="21" viewBox="0 0 20 21" fill="none" xmlns="http://www.w3.org/2000/svg">
<path d="M7.82613 15.6513C6.27833 15.6514 4.76525 15.1925 3.47825 14.3326C2.19126 13.4728 1.18816 12.2506 0.59579 10.8206C0.00342461 9.39064 -0.151591 7.81712 0.150346 6.29905C0.452284 4.78098 1.19762 3.38654 2.29208 2.29208C3.38655 1.19761 4.78098 0.452284 6.29905 0.150346C7.81712 -0.151591 9.39064 0.00342461 10.8206 0.59579C12.2506 1.18816 13.4728 2.19127 14.3326 3.47826C15.1925 4.76526 15.6514 6.27833 15.6513 7.82613C15.6489 9.90075 14.8237 11.8897 13.3567 13.3567C11.8897 14.8237 9.90075 15.6489 7.82613 15.6513ZM7.82613 2.00183C6.67429 2.00173 5.54829 2.34319 4.59052 2.98304C3.63274 3.62288 2.88621 4.53237 2.44533 5.59649C2.00445 6.66062 1.88902 7.83159 2.11364 8.96131C2.33825 10.091 2.89282 11.1288 3.70722 11.9433C4.52163 12.7579 5.55928 13.3126 6.68897 13.5374C7.81866 13.7622 8.98964 13.647 10.0538 13.2063C11.118 12.7656 12.0277 12.0193 12.6677 11.0616C13.3077 10.1039 13.6493 8.97797 13.6494 7.82613C13.6483 6.28197 13.0344 4.80138 11.9426 3.7094C10.8508 2.61742 9.3703 2.00328 7.82613 2.00183Z" fill="#2C3149"/>
<path d="M18.9998 20.0182C18.8683 20.0185 18.7381 19.9928 18.6166 19.9424C18.4952 19.8921 18.3849 19.8182 18.2922 19.725L13.3452 14.7785C13.2496 14.6861 13.1733 14.5757 13.1209 14.4536C13.0684 14.3315 13.0408 14.2001 13.0396 14.0672C13.0385 13.9343 13.0638 13.8025 13.1141 13.6795C13.1645 13.5565 13.2388 13.4448 13.3327 13.3508C13.4267 13.2568 13.5385 13.1825 13.6615 13.1321C13.7845 13.0818 13.9163 13.0565 14.0492 13.0577C14.1821 13.0588 14.3134 13.0864 14.4356 13.1389C14.5577 13.1913 14.6681 13.2676 14.7605 13.3632L19.7075 18.3102C19.8472 18.4502 19.9424 18.6285 19.9809 18.8225C20.0194 19.0166 19.9995 19.2177 19.9238 19.4004C19.8481 19.5832 19.7199 19.7394 19.5554 19.8494C19.391 19.9593 19.1976 20.0181 18.9998 20.0182Z" fill="#00FFB2"/>
</svg>
