<svg width="41" height="40" viewBox="0 0 41 40" fill="none" xmlns="http://www.w3.org/2000/svg">
<path d="M15.928 31.274C12.8353 31.2742 9.81185 30.3573 7.24021 28.6391C4.66856 26.921 2.66418 24.4788 1.48053 21.6215C0.296882 18.7642 -0.0128674 15.62 0.590458 12.5866C1.19378 9.55325 2.6831 6.76691 4.87003 4.57998C7.05696 2.39304 9.84328 0.903744 12.8767 0.300419C15.91 -0.302906 19.0542 0.00684297 21.9115 1.19049C24.7689 2.37415 27.211 4.37854 28.9291 6.95018C30.6473 9.52183 31.5643 12.5452 31.5641 15.638C31.5593 19.7835 29.9104 23.7578 26.9791 26.6891C24.0478 29.6203 20.0735 31.2692 15.928 31.274ZM15.928 4C13.6265 3.99981 11.3765 4.68211 9.46271 5.96064C7.54891 7.23916 6.0572 9.05648 5.17624 11.1828C4.29528 13.3091 4.06464 15.6489 4.51346 17.9063C4.96228 20.1637 6.0704 22.2373 7.69773 23.8649C9.32505 25.4925 11.3985 26.601 13.6558 27.0502C15.9131 27.4994 18.2529 27.2692 20.3794 26.3886C22.5059 25.508 24.3234 24.0166 25.6023 22.103C26.8812 20.1894 27.5639 17.9396 27.5641 15.638C27.5617 12.5525 26.335 9.59401 24.1534 7.41204C21.9718 5.23006 19.0136 4.00292 15.928 4Z" fill="#2C3149"/>
<path d="M38.2553 40.0004C37.9925 40.001 37.7323 39.9495 37.4896 39.8489C37.2469 39.7483 37.0265 39.6006 36.8413 39.4144L26.9563 29.5304C26.7653 29.3459 26.6129 29.1252 26.5081 28.8812C26.4033 28.6372 26.3481 28.3747 26.3458 28.1092C26.3435 27.8436 26.3941 27.5802 26.4946 27.3345C26.5952 27.0887 26.7437 26.8654 26.9315 26.6776C27.1193 26.4898 27.3426 26.3413 27.5884 26.2407C27.8342 26.1402 28.0975 26.0896 28.3631 26.0919C28.6286 26.0942 28.8911 26.1493 29.1351 26.2542C29.3791 26.359 29.5998 26.5113 29.7843 26.7024L39.6693 36.5874C39.9485 36.8671 40.1387 37.2234 40.2156 37.6111C40.2925 37.9988 40.2528 38.4007 40.1015 38.7659C39.9502 39.1311 39.6941 39.4432 39.3655 39.6629C39.0369 39.8827 38.6506 40.0001 38.2553 40.0004Z" fill="#A6C9FF"/>
</svg>
