<svg width="15" height="15" viewBox="0 0 15 15" fill="none" xmlns="http://www.w3.org/2000/svg">
<g clip-path="url(#clip0_36_572)">
<path d="M12.3909 11.7392H11.9017V7.33699C11.9017 4.90963 9.92693 2.93481 7.49957 2.93481C5.07221 2.93481 3.09739 4.90963 3.09739 7.33699V11.7392H2.60828C2.33816 11.7392 2.11914 11.9582 2.11914 12.2283V14.5109C2.11914 14.781 2.33813 15.0001 2.60828 15.0001H12.3909C12.661 15.0001 12.88 14.7811 12.88 14.5109V12.2283C12.88 11.9582 12.661 11.7392 12.3909 11.7392ZM4.07564 7.33699C4.07564 5.44904 5.61162 3.91307 7.49957 3.91307C9.38752 3.91307 10.9235 5.44904 10.9235 7.33699V11.7392H4.07564V7.33699ZM11.9017 14.0218H3.09739V12.7174H11.9017V14.0218Z" fill="#FF2F2F"/>
<path d="M7.49988 0C7.22977 0 7.01074 0.218994 7.01074 0.489141V1.46739C7.01074 1.73751 7.22974 1.95653 7.49988 1.95653C7.77003 1.95653 7.98902 1.73754 7.98902 1.46739V0.489141C7.98902 0.218994 7.77 0 7.49988 0Z" fill="#FF2F2F"/>
<path d="M7.49988 4.89136C7.22977 4.89136 7.01074 5.11035 7.01074 5.3805C7.01074 5.65062 7.22974 5.86964 7.49988 5.86964C8.309 5.86964 8.96728 6.52791 8.96728 7.33703C8.96728 7.60715 9.18627 7.82617 9.45642 7.82617C9.72656 7.82617 9.94556 7.60718 9.94556 7.33703C9.94553 5.98847 8.84842 4.89136 7.49988 4.89136Z" fill="#FF2F2F"/>
<path d="M1.63048 6.84778H0.652227C0.382109 6.84778 0.163086 7.06677 0.163086 7.33692C0.163086 7.60704 0.38208 7.82606 0.652227 7.82606H1.63048C1.9006 7.82606 2.11962 7.60707 2.11962 7.33692C2.11962 7.06677 1.90063 6.84778 1.63048 6.84778Z" fill="#FF2F2F"/>
<path d="M14.3483 6.84778H13.37C13.0999 6.84778 12.8809 7.06677 12.8809 7.33692C12.8809 7.60704 13.0999 7.82606 13.37 7.82606H14.3483C14.6184 7.82606 14.8374 7.60707 14.8374 7.33692C14.8374 7.06677 14.6184 6.84778 14.3483 6.84778Z" fill="#FF2F2F"/>
<path d="M12.6879 2.149C12.4969 1.95798 12.1871 1.95798 11.9961 2.149L11.3044 2.84073C11.1134 3.03174 11.1134 3.34144 11.3044 3.53246C11.4954 3.72347 11.8051 3.7235 11.9961 3.53246L12.6879 2.84073C12.8789 2.64968 12.8789 2.34001 12.6879 2.149Z" fill="#FF2F2F"/>
<path d="M3.69566 2.84073L3.00394 2.149C2.81295 1.95798 2.50322 1.95798 2.31221 2.149C2.12119 2.34001 2.12119 2.64971 2.31221 2.84073L3.00394 3.53246C3.19492 3.72347 3.50465 3.7235 3.69566 3.53246C3.88668 3.34141 3.88668 3.03174 3.69566 2.84073Z" fill="#FF2F2F"/>
</g>
<defs>
<clipPath id="clip0_36_572">
<rect width="15" height="15" fill="white"/>
</clipPath>
</defs>
</svg>
