<svg width="12" height="12" viewBox="0 0 12 12" fill="none" xmlns="http://www.w3.org/2000/svg">
<path d="M9.46482 12H5.34456C5.18543 12 5.03282 11.9339 4.9203 11.8161C4.80778 11.6984 4.74455 11.5388 4.74455 11.3723C4.74455 11.2059 4.80778 11.0462 4.9203 10.9285C5.03282 10.8108 5.18543 10.7446 5.34456 10.7446H9.46482C9.63552 10.7455 9.8008 10.682 9.93043 10.5658C10.0601 10.4496 10.1454 10.2885 10.1707 10.1119L10.7926 5.91278C10.8077 5.81194 10.8017 5.70888 10.775 5.6107C10.7483 5.51253 10.7017 5.42155 10.6382 5.34402C10.5748 5.2665 10.496 5.20425 10.4074 5.16157C10.3188 5.1189 10.2224 5.09679 10.1248 5.09679H7.14459C6.98545 5.09679 6.83285 5.03067 6.72032 4.91296C6.6078 4.79524 6.54458 4.63558 6.54458 4.46911V1.9788C6.54426 1.78674 6.47118 1.60265 6.34133 1.46688C6.21148 1.3311 6.03547 1.25471 5.85188 1.25446C5.82578 1.25095 5.79936 1.25784 5.7779 1.27377C5.75644 1.28971 5.74152 1.31352 5.73608 1.34045C5.53233 2.6338 5.14972 3.88924 4.60026 5.06729L4.21595 5.89175C4.1666 5.99756 4.08977 6.08672 3.99428 6.14904C3.8988 6.21136 3.78848 6.24433 3.67593 6.24419H1.41989C1.36162 6.24419 1.30574 6.26838 1.26451 6.31146C1.22328 6.35453 1.2001 6.41296 1.20002 6.47391V10.5149C1.20002 10.5451 1.2057 10.575 1.21675 10.6029C1.22781 10.6308 1.24401 10.6561 1.26443 10.6775C1.28486 10.6988 1.3091 10.7157 1.33577 10.7272C1.36245 10.7388 1.39103 10.7447 1.41989 10.7446H3.66993C3.82906 10.7446 3.9817 10.8108 4.09422 10.9285C4.20675 11.0462 4.26994 11.2059 4.26994 11.3723C4.26994 11.5388 4.20675 11.6984 4.09422 11.8161C3.9817 11.9339 3.82906 12 3.66993 12H1.41989C1.04346 11.9997 0.682524 11.8431 0.416315 11.5647C0.150105 11.2863 0.000397203 10.9087 0 10.5149V6.47391C0.000476464 6.08014 0.150232 5.70266 0.416425 5.42425C0.682617 5.14584 1.04348 4.98924 1.41989 4.98883H3.30093L3.52084 4.51807C4.0192 3.45009 4.36623 2.31189 4.55104 1.13928C4.59951 0.82073 4.75528 0.530816 4.99021 0.321892C5.22513 0.112968 5.52373 -0.00119244 5.83207 4.59242e-05C6.08198 -0.00173163 6.32978 0.0481092 6.56124 0.146717C6.7927 0.245326 7.00326 0.390765 7.18088 0.574683C7.3585 0.758602 7.49968 0.977379 7.59631 1.21849C7.69294 1.4596 7.74315 1.7183 7.74401 1.97974V3.84331H10.1242C10.3948 3.84338 10.6622 3.90469 10.908 4.02302C11.1539 4.14135 11.3723 4.31389 11.5484 4.52884C11.7245 4.74378 11.8541 4.99604 11.9282 5.26828C12.0024 5.54053 12.0193 5.82634 11.9779 6.1061L11.356 10.305C11.2877 10.778 11.0589 11.2094 10.7116 11.5206C10.3643 11.8318 9.92153 12.0018 9.46424 11.9997" fill="#00B2FF"/>
</svg>
