<svg width="12" height="12" viewBox="0 0 12 12" fill="none" xmlns="http://www.w3.org/2000/svg">
<path d="M9.46482 -8.27441e-07L5.34456 -4.67236e-07C5.18543 -4.53325e-07 5.03282 0.0661388 4.9203 0.183851C4.80777 0.301564 4.74455 0.461207 4.74455 0.627678C4.74455 0.794148 4.80777 0.95381 4.9203 1.07152C5.03282 1.18924 5.18543 1.25536 5.34456 1.25536L9.46482 1.25536C9.63552 1.2545 9.8008 1.31799 9.93043 1.43417C10.0601 1.55035 10.1454 1.71148 10.1707 1.88807L10.7926 6.08722C10.8077 6.18806 10.8017 6.29112 10.775 6.3893C10.7483 6.48747 10.7017 6.57845 10.6382 6.65597C10.5748 6.7335 10.496 6.79575 10.4074 6.83843C10.3188 6.8811 10.2224 6.90321 10.1248 6.90321L7.14459 6.90321C6.98545 6.90321 6.83285 6.96933 6.72032 7.08704C6.6078 7.20476 6.54458 7.36442 6.54458 7.53089L6.54458 10.0212C6.54426 10.2133 6.47118 10.3973 6.34133 10.5331C6.21148 10.6689 6.03547 10.7453 5.85188 10.7455C5.82578 10.749 5.79936 10.7422 5.7779 10.7262C5.75644 10.7103 5.74152 10.6865 5.73608 10.6595C5.53233 9.3662 5.14972 8.11076 4.60026 6.93271L4.21595 6.10825C4.1666 6.00243 4.08977 5.91328 3.99428 5.85096C3.89879 5.78864 3.78848 5.75566 3.67593 5.75581L1.41989 5.75581C1.36162 5.75581 1.30574 5.73161 1.26451 5.68854C1.22328 5.64547 1.2001 5.58704 1.20002 5.52609L1.20002 1.4851C1.20002 1.45491 1.2057 1.425 1.21675 1.3971C1.22781 1.36921 1.24401 1.34387 1.26443 1.32253C1.28486 1.3012 1.30909 1.28429 1.33577 1.27277C1.36245 1.26124 1.39103 1.25531 1.41989 1.25536L3.66993 1.25536C3.82906 1.25536 3.9817 1.18924 4.09422 1.07152C4.20675 0.95381 4.26993 0.794148 4.26993 0.627678C4.26993 0.461207 4.20675 0.301564 4.09422 0.183851C3.9817 0.0661389 3.82906 -3.34747e-07 3.66993 -3.20835e-07L1.41989 -1.24131e-07C1.04346 0.000331787 0.682523 0.156895 0.416314 0.435321C0.150104 0.713748 0.000396249 1.09131 -9.19241e-07 1.4851L-5.65968e-07 5.52609C0.000475932 5.91986 0.150232 6.29734 0.416424 6.57575C0.682616 6.85416 1.04348 7.01076 1.41989 7.01117L3.30093 7.01117L3.52084 7.48193C4.0192 8.54991 4.36623 9.68811 4.55104 10.8607C4.59951 11.1793 4.75528 11.4692 4.99021 11.6781C5.22513 11.887 5.52373 12.0012 5.83207 12C6.08198 12.0017 6.32978 11.9519 6.56124 11.8533C6.7927 11.7547 7.00326 11.6092 7.18088 11.4253C7.3585 11.2414 7.49968 11.0226 7.59631 10.7815C7.69294 10.5404 7.74315 10.2817 7.74401 10.0203L7.74401 8.15669L10.1242 8.15669C10.3948 8.15662 10.6622 8.0953 10.908 7.97698C11.1539 7.85865 11.3723 7.68611 11.5484 7.47116C11.7245 7.25622 11.8541 7.00396 11.9282 6.73171C12.0024 6.45947 12.0193 6.17366 11.9779 5.8939L11.356 1.69504C11.2877 1.22203 11.0589 0.790553 10.7116 0.479396C10.3643 0.16824 9.92153 -0.00180903 9.46424 0.000324376" fill="#9A2AED"/>
</svg>
