<svg width="20" height="20" viewBox="0 0 20 20" fill="none" xmlns="http://www.w3.org/2000/svg">
<path d="M9.99974 12.2621C8.78711 12.2622 7.60168 11.9027 6.59337 11.2291C5.58505 10.5555 4.79913 9.59796 4.335 8.47767C3.87088 7.35737 3.74941 6.12461 3.98591 4.93527C4.22242 3.74593 4.80628 2.65344 5.66371 1.79594C6.52113 0.938446 7.61358 0.354455 8.8029 0.117844C9.99223 -0.118766 11.225 0.00263098 12.3454 0.46666C13.4657 0.93069 14.4232 1.71651 15.0969 2.72477C15.7707 3.73303 16.1303 4.91843 16.1303 6.13106C16.1286 7.75651 15.4822 9.31491 14.3329 10.4643C13.1835 11.6137 11.6252 12.2603 9.99974 12.2621ZM9.99974 2.10422C9.20351 2.10411 8.42512 2.34013 7.76303 2.7824C7.10093 3.22467 6.58486 3.85333 6.28007 4.58891C5.97527 5.32449 5.89544 6.13393 6.05067 6.91488C6.2059 7.69583 6.58922 8.4132 7.15216 8.97629C7.7151 9.53938 8.43238 9.92289 9.21329 10.0783C9.99419 10.2338 10.8037 10.1542 11.5393 9.84955C12.275 9.54494 12.9038 9.02903 13.3462 8.36705C13.7887 7.70507 14.0249 6.92676 14.025 6.13053C14.0238 5.06325 13.5993 4.04003 12.8447 3.28525C12.0901 2.53047 11.067 2.10575 9.99974 2.10422Z" fill="#2C3149"/>
<path d="M18.9474 19.9993C18.6682 19.9993 18.4004 19.8884 18.203 19.691C18.0056 19.4936 17.8947 19.2259 17.8947 18.9467C17.8926 17.1746 17.1878 15.4756 15.9347 14.2226C14.6816 12.9695 12.9826 12.2646 11.2105 12.2625H8.78948C7.01736 12.2646 5.31841 12.9695 4.06533 14.2226C2.81225 15.4756 2.10735 17.1746 2.10526 18.9467C2.10526 19.2259 1.99435 19.4936 1.79694 19.691C1.59953 19.8884 1.33181 19.9993 1.05263 19.9993C0.773456 19.9993 0.505699 19.8884 0.308292 19.691C0.110885 19.4936 0 19.2259 0 18.9467C0.00278573 16.6164 0.929708 14.3824 2.57745 12.7347C4.22519 11.0869 6.45922 10.16 8.78948 10.1572H11.2105C13.5408 10.16 15.7748 11.0869 17.4226 12.7347C19.0703 14.3824 19.9972 16.6164 20 18.9467C20 19.2259 19.8891 19.4936 19.6917 19.691C19.4943 19.8884 19.2265 19.9993 18.9474 19.9993Z" fill="#A6C9FF"/>
</svg>
