<svg width="20" height="20" viewBox="0 0 20 20" fill="none" xmlns="http://www.w3.org/2000/svg">
<path d="M9.99992 12.2621C8.78729 12.2622 7.60187 11.9027 6.59355 11.2291C5.58524 10.5555 4.79931 9.59796 4.33519 8.47767C3.87106 7.35737 3.74959 6.12461 3.9861 4.93527C4.22261 3.74593 4.80647 2.65344 5.66389 1.79594C6.52131 0.938446 7.61377 0.354455 8.80309 0.117844C9.99241 -0.118766 11.2252 0.00263098 12.3455 0.46666C13.4659 0.93069 14.4234 1.71651 15.0971 2.72477C15.7708 3.73303 16.1305 4.91843 16.1305 6.13106C16.1288 7.75651 15.4824 9.31491 14.333 10.4643C13.1837 11.6137 11.6254 12.2603 9.99992 12.2621ZM9.99992 2.10422C9.2037 2.10411 8.42531 2.34013 7.76321 2.7824C7.10111 3.22467 6.58505 3.85333 6.28025 4.58891C5.97545 5.32449 5.89562 6.13393 6.05085 6.91488C6.20609 7.69583 6.5894 8.4132 7.15234 8.97629C7.71529 9.53938 8.43256 9.92289 9.21347 10.0783C9.99438 10.2338 10.8039 10.1542 11.5395 9.84955C12.2752 9.54494 12.904 9.02903 13.3464 8.36705C13.7889 7.70507 14.0251 6.92676 14.0252 6.13053C14.0239 5.06325 13.5995 4.04003 12.8449 3.28525C12.0903 2.53047 11.0672 2.10575 9.99992 2.10422Z" fill="#2C3149"/>
<path d="M18.9474 19.9996C18.6682 19.9996 18.4004 19.8887 18.203 19.6913C18.0056 19.4939 17.8947 19.2261 17.8947 18.947C17.8926 17.1748 17.1878 15.4759 15.9347 14.2228C14.6816 12.9697 12.9826 12.2648 11.2105 12.2627H8.78948C7.01736 12.2648 5.31841 12.9697 4.06533 14.2228C2.81225 15.4759 2.10735 17.1748 2.10526 18.947C2.10526 19.2261 1.99435 19.4939 1.79694 19.6913C1.59953 19.8887 1.33181 19.9996 1.05263 19.9996C0.773456 19.9996 0.505699 19.8887 0.308292 19.6913C0.110885 19.4939 0 19.2261 0 18.947C0.00278573 16.6167 0.929708 14.3827 2.57745 12.7349C4.22519 11.0872 6.45922 10.1603 8.78948 10.1575H11.2105C13.5408 10.1603 15.7748 11.0872 17.4226 12.7349C19.0703 14.3827 19.9972 16.6167 20 18.947C20 19.2261 19.8891 19.4939 19.6917 19.6913C19.4943 19.8887 19.2265 19.9996 18.9474 19.9996Z" fill="#00FFB2"/>
</svg>
