<svg width="20" height="18" viewBox="0 0 20 18" fill="none" xmlns="http://www.w3.org/2000/svg">
<path d="M7.30186 12.2545C6.4097 12.2545 5.53757 11.982 4.79577 11.4715C4.05396 10.9611 3.4758 10.2356 3.13439 9.38672C2.79297 8.53787 2.70364 7.60382 2.87769 6.70269C3.05174 5.80156 3.48136 4.97381 4.11222 4.32413C4.74307 3.67445 5.54683 3.23201 6.42185 3.05276C7.29687 2.87352 8.20385 2.96552 9.0281 3.31712C9.85235 3.66873 10.5568 4.26415 11.0525 5.02809C11.5482 5.79204 11.8127 6.69019 11.8127 7.60898C11.8109 8.84046 11.3351 10.021 10.4895 10.8918C9.64397 11.7626 8.49766 12.2526 7.30186 12.2545ZM7.30186 4.71301C6.74636 4.71301 6.20335 4.88265 5.74147 5.20048C5.27959 5.51831 4.9196 5.97004 4.70702 6.49857C4.49444 7.0271 4.43883 7.60868 4.5472 8.16977C4.65557 8.73085 4.92307 9.24623 5.31586 9.65075C5.70866 10.0553 6.2091 10.3307 6.75392 10.4424C7.29874 10.554 7.86346 10.4967 8.37668 10.2778C8.88989 10.0588 9.32856 9.6881 9.63718 9.21243C9.9458 8.73677 10.1105 8.17755 10.1105 7.60547C10.1093 6.83874 9.81296 6.10377 9.28651 5.5616C8.76005 5.01943 8.04638 4.71428 7.30186 4.71301Z" fill="black"/>
<path d="M13.7526 18C13.5268 18 13.3104 17.9077 13.1507 17.7433C12.9911 17.5789 12.9014 17.356 12.9014 17.1235C12.9 15.8328 12.4015 14.5954 11.5153 13.6827C10.6292 12.7701 9.4277 12.2566 8.17443 12.255H6.42965C5.1763 12.2565 3.9747 12.7699 3.08845 13.6826C2.2022 14.5953 1.70367 15.8328 1.70221 17.1235C1.70221 17.356 1.61253 17.5789 1.45291 17.7433C1.2933 17.9077 1.07683 18 0.851105 18C0.625378 18 0.408882 17.9077 0.249269 17.7433C0.0896561 17.5789 0 17.356 0 17.1235C0.00191479 15.368 0.679915 13.6849 1.8853 12.4435C3.09068 11.2022 4.72498 10.5039 6.42965 10.502H8.17443C9.87909 10.5039 11.5134 11.2022 12.7188 12.4435C13.9242 13.6849 14.6022 15.368 14.6041 17.1235C14.6041 17.356 14.5144 17.5789 14.3548 17.7433C14.1952 17.9077 13.9787 18 13.753 18" fill="#A6C9FF"/>
<path d="M16.3765 7.67336C16.1508 7.67336 15.9343 7.58101 15.7747 7.41664C15.615 7.25226 15.5254 7.02932 15.5254 6.79685V0.876504C15.5254 0.644041 15.615 0.421098 15.7747 0.256721C15.9343 0.0923451 16.1508 0 16.3765 0C16.6022 0 16.8187 0.0923451 16.9783 0.256721C17.1379 0.421098 17.2276 0.644041 17.2276 0.876504V6.79685C17.2276 7.02932 17.1379 7.25226 16.9783 7.41664C16.8187 7.58101 16.6022 7.67336 16.3765 7.67336Z" fill="#A6C9FF"/>
<path d="M19.1491 4.71175H13.482C13.2562 4.71175 13.0397 4.6194 12.8801 4.45503C12.7205 4.29065 12.6309 4.06771 12.6309 3.83524C12.6309 3.60278 12.7205 3.37984 12.8801 3.21546C13.0397 3.05109 13.2562 2.95874 13.482 2.95874H19.1491C19.3748 2.95874 19.5912 3.05109 19.7509 3.21546C19.9105 3.37984 20.0002 3.60278 20.0002 3.83524C20.0002 4.06771 19.9105 4.29065 19.7509 4.45503C19.5912 4.6194 19.3748 4.71175 19.1491 4.71175Z" fill="#A6C9FF"/>
</svg>
