<svg width="32" height="28" viewBox="0 0 32 28" fill="none" xmlns="http://www.w3.org/2000/svg">
<path d="M11.5053 18.7504C10.0995 18.7504 8.72528 18.3335 7.5564 17.5525C6.38752 16.7715 5.4765 15.6614 4.93852 14.3626C4.40055 13.0638 4.25978 11.6347 4.53404 10.2559C4.8083 8.87707 5.48526 7.61058 6.47932 6.61652C7.47337 5.62247 8.73987 4.9455 10.1187 4.67125C11.4974 4.39699 12.9266 4.53775 14.2254 5.07573C15.5242 5.61371 16.6343 6.52474 17.4153 7.69363C18.1963 8.86251 18.6132 10.2367 18.6132 11.6425C18.6104 13.5268 17.8606 15.3331 16.5282 16.6654C15.1958 17.9978 13.3896 18.7476 11.5053 18.7504ZM11.5053 7.21152C10.63 7.21152 9.77436 7.47109 9.04657 7.95738C8.31877 8.44368 7.75152 9.13486 7.41655 9.94355C7.08158 10.7522 6.99396 11.6421 7.16473 12.5006C7.33549 13.3591 7.75699 14.1477 8.37593 14.7666C8.99487 15.3855 9.78342 15.807 10.6419 15.9778C11.5004 16.1486 12.3902 16.0609 13.1989 15.7259C14.0076 15.391 14.6988 14.8237 15.1851 14.0959C15.6714 13.3681 15.931 12.5125 15.931 11.6372C15.929 10.464 15.4621 9.33947 14.6326 8.50992C13.803 7.68037 12.6785 7.21347 11.5053 7.21152Z" fill="black"/>
<path d="M21.6703 27.5409C21.3146 27.5409 20.9735 27.3996 20.722 27.1481C20.4705 26.8966 20.3291 26.5554 20.3291 26.1998C20.3268 24.2249 19.5414 22.3316 18.145 20.9352C16.7487 19.5387 14.8555 18.7531 12.8807 18.7506H10.1314C8.15642 18.7529 6.26304 19.5385 4.86655 20.9349C3.47006 22.3314 2.68452 24.2248 2.68221 26.1998C2.68221 26.5554 2.5409 26.8966 2.28939 27.1481C2.03789 27.3996 1.69679 27.5409 1.34111 27.5409C0.985424 27.5409 0.644286 27.3996 0.39278 27.1481C0.141273 26.8966 0 26.5554 0 26.1998C0.00301718 23.5137 1.07136 20.9385 2.97071 19.0391C4.87006 17.1398 7.44527 16.0714 10.1314 16.0684H12.8807C15.5667 16.0714 18.142 17.1398 20.0413 19.0391C21.9407 20.9385 23.009 23.5137 23.0121 26.1998C23.0121 26.5554 22.8707 26.8966 22.6192 27.1481C22.3677 27.3996 22.0266 27.5409 21.671 27.5409" fill="#00FFB2"/>
<path d="M25.803 11.7407C25.4473 11.7407 25.1062 11.5994 24.8547 11.3479C24.6032 11.0964 24.4619 10.7553 24.4619 10.3996V1.34111C24.4619 0.985424 24.6032 0.644307 24.8547 0.3928C25.1062 0.141294 25.4473 0 25.803 0C26.1587 0 26.4998 0.141294 26.7513 0.3928C27.0028 0.644307 27.1441 0.985424 27.1441 1.34111V10.3996C27.1441 10.7553 27.0028 11.0964 26.7513 11.3479C26.4998 11.5994 26.1587 11.7407 25.803 11.7407Z" fill="#00FFB2"/>
<path d="M30.1747 7.20907H21.2449C20.8892 7.20907 20.5481 7.06778 20.2966 6.81627C20.0451 6.56476 19.9038 6.22365 19.9038 5.86796C19.9038 5.51228 20.0451 5.17116 20.2966 4.91966C20.5481 4.66815 20.8892 4.52686 21.2449 4.52686H30.1747C30.5304 4.52686 30.8715 4.66815 31.123 4.91966C31.3745 5.17116 31.5158 5.51228 31.5158 5.86796C31.5158 6.22365 31.3745 6.56476 31.123 6.81627C30.8715 7.06778 30.5304 7.20907 30.1747 7.20907Z" fill="#00FFB2"/>
</svg>
