<svg width="22" height="20" viewBox="0 0 22 20" fill="none" xmlns="http://www.w3.org/2000/svg">
<path d="M9.49999 12C8.41219 12 7.34882 11.6481 6.44435 10.9888C5.53988 10.3295 4.83495 9.39245 4.41867 8.29609C4.00239 7.19973 3.89346 5.99334 4.10568 4.82946C4.3179 3.66557 4.84173 2.59648 5.61092 1.75736C6.38011 0.91825 7.36011 0.346801 8.427 0.11529C9.4939 -0.116222 10.5998 0.0026037 11.6047 0.456729C12.6097 0.910855 13.4687 1.67989 14.0731 2.66659C14.6774 3.65328 15 4.81331 15 6C14.9978 7.59056 14.4176 9.1153 13.3866 10.24C12.3557 11.3647 10.958 11.9976 9.49999 12ZM9.49999 2.25963C8.82268 2.25963 8.16059 2.47873 7.59743 2.88923C7.03427 3.29973 6.59534 3.88318 6.33614 4.56582C6.07695 5.24846 6.00914 5.99962 6.14128 6.7243C6.27342 7.44899 6.59957 8.11465 7.0785 8.63711C7.55743 9.15958 8.1676 9.51539 8.83189 9.65953C9.49619 9.80368 10.1847 9.7297 10.8105 9.44694C11.4362 9.16418 11.9711 8.68535 12.3474 8.07099C12.7237 7.45663 12.9245 6.73436 12.9245 5.99548C12.923 5.00517 12.5617 4.0559 11.9198 3.35565C11.2779 2.6554 10.4078 2.26127 9.49999 2.25963Z" fill="black"/>
<path d="M17.8921 20C17.5985 20 17.3168 19.8768 17.1092 19.6576C16.9015 19.4384 16.7848 19.1411 16.7848 18.831C16.7829 17.1097 16.1344 15.4594 14.9815 14.2422C13.8286 13.0249 12.2655 12.3401 10.635 12.3379H8.365C6.73438 12.34 5.17111 13.0247 4.01809 14.242C2.86507 15.4592 2.21649 17.1096 2.21458 18.831C2.21458 19.1411 2.0979 19.4384 1.89025 19.6576C1.68259 19.8768 1.40096 20 1.10729 20C0.813619 20 0.531958 19.8768 0.3243 19.6576C0.116643 19.4384 0 19.1411 0 18.831C0.00249115 16.4897 0.884573 14.245 2.45278 12.5895C4.02099 10.9339 6.14722 10.0026 8.365 10H10.635C12.8527 10.0026 14.979 10.9339 16.5472 12.5895C18.1154 14.245 18.9975 16.4897 19 18.831C19 19.1411 18.8833 19.4384 18.6757 19.6576C18.468 19.8768 18.1858 20 17.8921 20Z" fill="#69D2FF"/>
<path d="M18 9C17.7348 9 17.4804 8.89169 17.2929 8.69889C17.1053 8.5061 17 8.24461 17 7.97196V1.02804C17 0.755389 17.1053 0.493901 17.2929 0.301106C17.4804 0.108311 17.7348 0 18 0C18.2652 0 18.5196 0.108311 18.7071 0.301106C18.8946 0.493901 19 0.755389 19 1.02804V7.97196C19 8.24461 18.8946 8.5061 18.7071 8.69889C18.5196 8.89169 18.2652 9 18 9Z" fill="#69D2FF"/>
<path d="M21.0761 5H14.9239C14.6789 5 14.4439 4.89464 14.2706 4.70711C14.0973 4.51957 14 4.26522 14 4C14 3.73478 14.0973 3.48043 14.2706 3.29289C14.4439 3.10536 14.6789 3 14.9239 3H21.0761C21.3211 3 21.5561 3.10536 21.7294 3.29289C21.9026 3.48043 22 3.73478 22 4C22 4.26522 21.9026 4.51957 21.7294 4.70711C21.5561 4.89464 21.3211 5 21.0761 5Z" fill="#69D2FF"/>
</svg>
