<svg width="12" height="8" viewBox="0 0 12 8" fill="none" xmlns="http://www.w3.org/2000/svg">
<path d="M5.78134 8.00003C3.43072 8.00003 1.24228 6.57362 0.0691223 4.27783C0.0318412 4.20625 0.00911822 4.12796 0.0022314 4.04755C-0.00465543 3.96713 0.00443514 3.88616 0.0290018 3.80928C0.0535684 3.7324 0.093127 3.66126 0.145369 3.59974C0.197611 3.53822 0.26151 3.48759 0.333392 3.45089C0.405274 3.41419 0.483697 3.39209 0.564164 3.38586C0.644632 3.37962 0.725547 3.3894 0.802224 3.41459C0.878901 3.43978 0.949827 3.47987 1.01092 3.5326C1.07201 3.58534 1.12208 3.64964 1.15819 3.72182C2.12037 5.60599 3.89172 6.77659 5.77962 6.77659C7.66752 6.77659 9.43974 5.60599 10.4011 3.72182C10.4372 3.64964 10.4872 3.58534 10.5483 3.5326C10.6094 3.47987 10.6803 3.43978 10.757 3.41459C10.8337 3.3894 10.9146 3.37962 10.995 3.38586C11.0755 3.39209 11.154 3.41419 11.2259 3.45089C11.2977 3.48759 11.3616 3.53822 11.4139 3.59974C11.4661 3.66126 11.5057 3.7324 11.5302 3.80928C11.5548 3.88616 11.5639 3.96713 11.557 4.04755C11.5501 4.12796 11.5274 4.20625 11.4901 4.27783C10.3181 6.5742 8.12967 8.00003 5.77791 8.00003" fill="#00FFB2"/>
<path d="M0.613974 4.61137C0.509221 4.61147 0.406193 4.58472 0.31477 4.53358C0.223347 4.48245 0.146587 4.40859 0.0918469 4.31928C0.037107 4.22997 0.0062189 4.12808 0.00214509 4.02341C-0.00192873 3.91873 0.0209476 3.8148 0.0685805 3.7215C1.24088 1.42514 3.42961 8.76314e-08 5.7808 8.76314e-08C5.9955 -3.682e-05 6.21001 0.0115846 6.42346 0.0347595C6.50331 0.0434468 6.58067 0.0677894 6.65111 0.106381C6.72155 0.144972 6.78369 0.196958 6.83399 0.259575C6.88429 0.322191 6.92176 0.394112 6.94426 0.471215C6.96676 0.548317 6.97387 0.629082 6.96514 0.708925C6.94595 0.869522 6.86455 1.01622 6.73843 1.11749C6.61232 1.21876 6.45154 1.26658 6.29059 1.25064C6.1213 1.23193 5.95112 1.22232 5.7808 1.22191C3.89175 1.22191 2.12065 2.39222 1.15933 4.27667C1.10803 4.37716 1.02993 4.46154 0.933677 4.52041C0.837425 4.57928 0.7268 4.61036 0.613974 4.61025" fill="#00FFB2"/>
<path d="M10.9488 4.61137C10.836 4.61148 10.7253 4.58039 10.6291 4.52153C10.5328 4.46266 10.4547 4.37828 10.4034 4.27779C9.79002 3.01565 8.72442 2.03043 7.41817 1.51764C7.34289 1.48971 7.27383 1.44723 7.21497 1.39262C7.15611 1.338 7.10861 1.27232 7.07513 1.19934C7.04165 1.12636 7.02287 1.04747 7.01987 0.967236C7.01687 0.886999 7.02971 0.806906 7.05764 0.731628C7.08558 0.656351 7.12805 0.587396 7.18267 0.528538C7.23728 0.46968 7.30293 0.422138 7.37591 0.388659C7.44889 0.355181 7.52778 0.336438 7.60801 0.333437C7.68825 0.330435 7.76827 0.343207 7.84355 0.371139C9.43721 0.99012 10.7395 2.18616 11.4916 3.7215C11.5392 3.8148 11.5621 3.91873 11.558 4.0234C11.554 4.12808 11.5231 4.22997 11.4683 4.31928C11.4136 4.40859 11.3368 4.48245 11.2454 4.53358C11.154 4.58472 11.051 4.61147 10.9463 4.61137" fill="#00FFB2"/>
<path d="M5.78142 6.01508C5.38281 6.01508 4.99315 5.89679 4.66172 5.67533C4.33029 5.45387 4.07197 5.13916 3.91944 4.77089C3.76691 4.40261 3.72704 3.99739 3.80483 3.60644C3.88261 3.2155 4.07458 2.85643 4.35646 2.57459C4.63834 2.29275 4.99745 2.1008 5.38841 2.02307C5.77937 1.94534 6.1846 1.98528 6.55285 2.13786C6.9211 2.29044 7.23585 2.54882 7.45726 2.88028C7.67868 3.21174 7.79682 3.6014 7.79676 4.00001C7.79608 4.53428 7.58352 5.04641 7.20571 5.42417C6.8279 5.80192 6.31568 6.01447 5.78142 6.01508ZM5.78142 3.13285C5.60991 3.13285 5.44226 3.18361 5.29966 3.27889C5.15705 3.37418 5.0459 3.50966 4.98027 3.66811C4.91464 3.82657 4.89744 4.00097 4.9309 4.16918C4.96436 4.3374 5.04695 4.49193 5.16822 4.61321C5.2895 4.73448 5.44403 4.81704 5.61225 4.8505C5.78046 4.88396 5.95483 4.86679 6.11328 4.80116C6.27173 4.73553 6.40715 4.62434 6.50243 4.48174C6.59772 4.33913 6.64858 4.17152 6.64858 4.00001C6.64828 3.77012 6.55682 3.54966 6.39426 3.3871C6.2317 3.22454 6.01131 3.13315 5.78142 3.13285Z" fill="#00FFB2"/>
</svg>
