<svg width="91" height="35" viewBox="0 0 91 35" fill="none" xmlns="http://www.w3.org/2000/svg">
<g style="mix-blend-mode:multiply">
<path d="M45.5 0L60 9.75367L45.5 19.5073L31 9.75367L45.5 0Z" fill="#F5F5F5"/>
</g>
<g style="mix-blend-mode:multiply">
<path d="M45.7685 20.1575L60 10.4038V24.7092L45.7685 34.4629V20.1575Z" fill="#F5F5F5"/>
</g>
<g style="mix-blend-mode:multiply">
<path d="M45.2315 20.1575L31 10.4038V24.7092L45.2315 34.4629V20.1575Z" fill="#F5F5F5"/>
</g>
<path d="M4.63281 19.6797H1.75L1.73438 18.4688H4.35156C4.78385 18.4688 5.16146 18.3958 5.48438 18.25C5.80729 18.1042 6.05729 17.8958 6.23438 17.625C6.41667 17.349 6.50781 17.0208 6.50781 16.6406C6.50781 16.224 6.42708 15.8854 6.26562 15.625C6.10938 15.3594 5.86719 15.1667 5.53906 15.0469C5.21615 14.9219 4.80469 14.8594 4.30469 14.8594H2.08594V25H0.578125V13.625H4.30469C4.88802 13.625 5.40885 13.6849 5.86719 13.8047C6.32552 13.9193 6.71354 14.1016 7.03125 14.3516C7.35417 14.5964 7.59896 14.9089 7.76562 15.2891C7.93229 15.6693 8.01562 16.125 8.01562 16.6562C8.01562 17.125 7.89583 17.5495 7.65625 17.9297C7.41667 18.3047 7.08333 18.612 6.65625 18.8516C6.23438 19.0911 5.73958 19.2448 5.17188 19.3125L4.63281 19.6797ZM4.5625 25H1.15625L2.00781 23.7734H4.5625C5.04167 23.7734 5.44792 23.6901 5.78125 23.5234C6.11979 23.3568 6.3776 23.1224 6.55469 22.8203C6.73177 22.513 6.82031 22.151 6.82031 21.7344C6.82031 21.3125 6.74479 20.9479 6.59375 20.6406C6.44271 20.3333 6.20573 20.0964 5.88281 19.9297C5.5599 19.763 5.14323 19.6797 4.63281 19.6797H2.48438L2.5 18.4688H5.4375L5.75781 18.9062C6.30469 18.9531 6.76823 19.1094 7.14844 19.375C7.52865 19.6354 7.81771 19.9688 8.01562 20.375C8.21875 20.7812 8.32031 21.2292 8.32031 21.7188C8.32031 22.4271 8.16406 23.026 7.85156 23.5156C7.54427 24 7.10938 24.3698 6.54688 24.625C5.98438 24.875 5.32292 25 4.5625 25Z" fill="black"/>
<path d="M17.4453 23.7734V25H11.7578V23.7734H17.4453ZM12.0547 13.625V25H10.5469V13.625H12.0547Z" fill="black"/>
<path d="M27.4141 18.9531V19.6719C27.4141 20.526 27.3073 21.2917 27.0938 21.9688C26.8802 22.6458 26.5729 23.2214 26.1719 23.6953C25.7708 24.1693 25.2891 24.5312 24.7266 24.7812C24.1693 25.0312 23.5443 25.1562 22.8516 25.1562C22.1797 25.1562 21.5625 25.0312 21 24.7812C20.4427 24.5312 19.9583 24.1693 19.5469 23.6953C19.1406 23.2214 18.8255 22.6458 18.6016 21.9688C18.3776 21.2917 18.2656 20.526 18.2656 19.6719V18.9531C18.2656 18.099 18.375 17.3359 18.5938 16.6641C18.8177 15.987 19.1328 15.4115 19.5391 14.9375C19.9453 14.4583 20.4271 14.0938 20.9844 13.8438C21.5469 13.5938 22.1641 13.4688 22.8359 13.4688C23.5286 13.4688 24.1536 13.5938 24.7109 13.8438C25.2734 14.0938 25.7552 14.4583 26.1562 14.9375C26.5625 15.4115 26.8724 15.987 27.0859 16.6641C27.3047 17.3359 27.4141 18.099 27.4141 18.9531ZM25.9219 19.6719V18.9375C25.9219 18.2604 25.8516 17.6615 25.7109 17.1406C25.5755 16.6198 25.375 16.1823 25.1094 15.8281C24.8438 15.474 24.5182 15.2057 24.1328 15.0234C23.7526 14.8411 23.3203 14.75 22.8359 14.75C22.3672 14.75 21.9427 14.8411 21.5625 15.0234C21.1875 15.2057 20.8646 15.474 20.5938 15.8281C20.3281 16.1823 20.1224 16.6198 19.9766 17.1406C19.8307 17.6615 19.7578 18.2604 19.7578 18.9375V19.6719C19.7578 20.3542 19.8307 20.9583 19.9766 21.4844C20.1224 22.0052 20.3307 22.4453 20.6016 22.8047C20.8776 23.1589 21.2031 23.4271 21.5781 23.6094C21.9583 23.7917 22.3828 23.8828 22.8516 23.8828C23.3411 23.8828 23.776 23.7917 24.1562 23.6094C24.5365 23.4271 24.8568 23.1589 25.1172 22.8047C25.3828 22.4453 25.5833 22.0052 25.7188 21.4844C25.8542 20.9583 25.9219 20.3542 25.9219 19.6719Z" fill="black"/>
<path d="M36.5391 21.3828H38.0391C37.9609 22.1016 37.7552 22.7448 37.4219 23.3125C37.0885 23.8802 36.6172 24.3307 36.0078 24.6641C35.3984 24.9922 34.638 25.1562 33.7266 25.1562C33.0599 25.1562 32.4531 25.0312 31.9062 24.7812C31.3646 24.5312 30.8984 24.1771 30.5078 23.7188C30.1172 23.2552 29.8151 22.7005 29.6016 22.0547C29.3932 21.4036 29.2891 20.6797 29.2891 19.8828V18.75C29.2891 17.9531 29.3932 17.2318 29.6016 16.5859C29.8151 15.9349 30.1198 15.3776 30.5156 14.9141C30.9167 14.4505 31.3984 14.0938 31.9609 13.8438C32.5234 13.5938 33.1562 13.4688 33.8594 13.4688C34.7188 13.4688 35.4453 13.6302 36.0391 13.9531C36.6328 14.276 37.0938 14.724 37.4219 15.2969C37.7552 15.8646 37.9609 16.5234 38.0391 17.2734H36.5391C36.4661 16.7422 36.3307 16.2865 36.1328 15.9062C35.9349 15.5208 35.6536 15.224 35.2891 15.0156C34.9245 14.8073 34.4479 14.7031 33.8594 14.7031C33.3542 14.7031 32.9089 14.7995 32.5234 14.9922C32.1432 15.1849 31.8229 15.4583 31.5625 15.8125C31.3073 16.1667 31.1146 16.5911 30.9844 17.0859C30.8542 17.5807 30.7891 18.1302 30.7891 18.7344V19.8828C30.7891 20.4401 30.8464 20.9635 30.9609 21.4531C31.0807 21.9427 31.2604 22.3724 31.5 22.7422C31.7396 23.112 32.0443 23.4036 32.4141 23.6172C32.7839 23.8255 33.2214 23.9297 33.7266 23.9297C34.3672 23.9297 34.8776 23.8281 35.2578 23.625C35.638 23.4219 35.9245 23.1302 36.1172 22.75C36.3151 22.3698 36.4557 21.9141 36.5391 21.3828Z" fill="black"/>
<path d="M41.6016 13.625V25H40.0938V13.625H41.6016ZM48.4688 13.625L43.7422 18.9297L41.0859 21.6875L40.8359 20.0781L42.8359 17.875L46.6562 13.625H48.4688ZM47.0156 25L42.8047 19.4531L43.7031 18.2578L48.8125 25H47.0156Z" fill="black"/>
<path d="M57.7656 20.1953H54.3125V19.7734H57.7656C58.5312 19.7734 59.1536 19.6484 59.6328 19.3984C60.112 19.1432 60.4609 18.8021 60.6797 18.375C60.9036 17.9479 61.0156 17.4766 61.0156 16.9609C61.0156 16.4245 60.9036 15.9375 60.6797 15.5C60.4609 15.0573 60.112 14.7057 59.6328 14.4453C59.1536 14.1797 58.5312 14.0469 57.7656 14.0469H54.6328V25H54.2109V13.625H57.7656C58.5729 13.625 59.2474 13.763 59.7891 14.0391C60.3359 14.3151 60.7474 14.7031 61.0234 15.2031C61.2995 15.6979 61.4375 16.2786 61.4375 16.9453C61.4375 17.612 61.2995 18.1901 61.0234 18.6797C60.7526 19.1641 60.3438 19.5391 59.7969 19.8047C59.2552 20.0651 58.5781 20.1953 57.7656 20.1953Z" fill="black"/>
<path d="M66.0078 13.9844L61.8984 25H61.4375L65.6953 13.625H66.1016L66.0078 13.9844ZM70.0078 25L65.8984 13.9844L65.8125 13.625H66.2109L70.4688 25H70.0078ZM68.8047 21.1797V21.6016H63.1094V21.1797H68.8047Z" fill="black"/>
<path d="M80.2266 19.8438V23.7812C80.1068 23.9531 79.8802 24.1458 79.5469 24.3594C79.2188 24.5729 78.7865 24.7604 78.25 24.9219C77.7188 25.0781 77.0833 25.1562 76.3438 25.1562C75.6979 25.1562 75.1068 25.0365 74.5703 24.7969C74.0339 24.5573 73.5703 24.2161 73.1797 23.7734C72.7891 23.3255 72.487 22.7969 72.2734 22.1875C72.0651 21.5729 71.9609 20.8958 71.9609 20.1562V18.2969C71.9609 17.5781 72.0625 16.9245 72.2656 16.3359C72.474 15.7474 72.7656 15.2396 73.1406 14.8125C73.5208 14.3802 73.9714 14.0495 74.4922 13.8203C75.013 13.5859 75.5859 13.4688 76.2109 13.4688C77.0339 13.4688 77.7292 13.612 78.2969 13.8984C78.8646 14.1849 79.3073 14.5729 79.625 15.0625C79.9479 15.5469 80.1432 16.0938 80.2109 16.7031H79.7891C79.7109 16.2083 79.5417 15.7474 79.2812 15.3203C79.0208 14.8932 78.6406 14.5495 78.1406 14.2891C77.6458 14.0234 77.0026 13.8906 76.2109 13.8906C75.6328 13.8906 75.1068 14 74.6328 14.2188C74.1641 14.4323 73.7604 14.7344 73.4219 15.125C73.0885 15.5156 72.8307 15.9792 72.6484 16.5156C72.4714 17.0521 72.3828 17.6406 72.3828 18.2812V20.1562C72.3828 20.8281 72.474 21.4427 72.6562 22C72.8438 22.5573 73.112 23.0417 73.4609 23.4531C73.8099 23.8594 74.2266 24.1745 74.7109 24.3984C75.2005 24.6224 75.7448 24.7344 76.3438 24.7344C76.9635 24.7344 77.5104 24.6719 77.9844 24.5469C78.4635 24.4167 78.8568 24.263 79.1641 24.0859C79.4766 23.9036 79.6901 23.737 79.8047 23.5859V20.2734H76.3281V19.8438H80.2266Z" fill="black"/>
<path d="M90.1172 24.5781V25H83.3438V24.5781H90.1172ZM83.6172 13.625V25H83.1953V13.625H83.6172ZM89.3203 18.9375V19.3594H83.3438V18.9375H89.3203ZM90.1172 13.625V14.0469H83.3438V13.625H90.1172Z" fill="black"/>
</svg>
