<svg width="105" height="39" viewBox="0 0 105 39" fill="none" xmlns="http://www.w3.org/2000/svg">
<g style="mix-blend-mode:multiply">
<path d="M52.1701 0L68.3642 10.8932L52.1701 21.7864L35.9761 10.8932L52.1701 0Z" fill="#F5F5F5"/>
</g>
<g style="mix-blend-mode:multiply">
<path d="M52.4702 22.5123L68.3644 11.6191V27.5958L52.4702 38.489V22.5123Z" fill="#F5F5F5"/>
</g>
<g style="mix-blend-mode:multiply">
<path d="M51.8701 22.5123L35.976 11.6191V27.5958L51.8701 38.489V22.5123Z" fill="#F5F5F5"/>
</g>
<path d="M1.40909 28V16.3636H5.47727C6.28788 16.3636 6.95644 16.5038 7.48295 16.7841C8.00947 17.0606 8.40152 17.4337 8.65909 17.9034C8.91667 18.3693 9.04545 18.8864 9.04545 19.4545C9.04545 19.9545 8.95644 20.3674 8.77841 20.6932C8.60417 21.0189 8.37311 21.2765 8.08523 21.4659C7.80114 21.6553 7.49242 21.7955 7.15909 21.8864V22C7.51515 22.0227 7.87311 22.1477 8.23295 22.375C8.5928 22.6023 8.89394 22.928 9.13636 23.3523C9.37879 23.7765 9.5 24.2955 9.5 24.9091C9.5 25.4924 9.36742 26.017 9.10227 26.483C8.83712 26.9489 8.41856 27.3182 7.84659 27.5909C7.27462 27.8636 6.5303 28 5.61364 28H1.40909ZM2.81818 26.75H5.61364C6.53409 26.75 7.1875 26.572 7.57386 26.2159C7.96402 25.8561 8.15909 25.4205 8.15909 24.9091C8.15909 24.5152 8.05871 24.1515 7.85795 23.8182C7.6572 23.4811 7.37121 23.2121 7 23.0114C6.62879 22.8068 6.18939 22.7045 5.68182 22.7045H2.81818V26.75ZM2.81818 21.4773H5.43182C5.85606 21.4773 6.23864 21.3939 6.57955 21.2273C6.92424 21.0606 7.19697 20.8258 7.39773 20.5227C7.60227 20.2197 7.70455 19.8636 7.70455 19.4545C7.70455 18.9432 7.52652 18.5095 7.17045 18.1534C6.81439 17.7936 6.25 17.6136 5.47727 17.6136H2.81818V21.4773ZM11.8153 28V16.3636H13.2244V26.75H18.6335V28H11.8153ZM30.1804 22.1818C30.1804 23.4091 29.9588 24.4697 29.5156 25.3636C29.0724 26.2576 28.4645 26.947 27.6918 27.4318C26.919 27.9167 26.0365 28.1591 25.044 28.1591C24.0516 28.1591 23.169 27.9167 22.3963 27.4318C21.6236 26.947 21.0156 26.2576 20.5724 25.3636C20.1293 24.4697 19.9077 23.4091 19.9077 22.1818C19.9077 20.9545 20.1293 19.8939 20.5724 19C21.0156 18.1061 21.6236 17.4167 22.3963 16.9318C23.169 16.447 24.0516 16.2045 25.044 16.2045C26.0365 16.2045 26.919 16.447 27.6918 16.9318C28.4645 17.4167 29.0724 18.1061 29.5156 19C29.9588 19.8939 30.1804 20.9545 30.1804 22.1818ZM28.8168 22.1818C28.8168 21.1742 28.6482 20.3239 28.3111 19.6307C27.9777 18.9375 27.5251 18.4129 26.9531 18.0568C26.3849 17.7008 25.7486 17.5227 25.044 17.5227C24.3395 17.5227 23.7012 17.7008 23.1293 18.0568C22.5611 18.4129 22.1084 18.9375 21.7713 19.6307C21.438 20.3239 21.2713 21.1742 21.2713 22.1818C21.2713 23.1894 21.438 24.0398 21.7713 24.733C22.1084 25.4261 22.5611 25.9508 23.1293 26.3068C23.7012 26.6629 24.3395 26.8409 25.044 26.8409C25.7486 26.8409 26.3849 26.6629 26.9531 26.3068C27.5251 25.9508 27.9777 25.4261 28.3111 24.733C28.6482 24.0398 28.8168 23.1894 28.8168 22.1818ZM41.9134 20H40.5043C40.4209 19.5947 40.2751 19.2386 40.0668 18.9318C39.8622 18.625 39.6122 18.3674 39.3168 18.1591C39.0251 17.947 38.7012 17.7879 38.3452 17.6818C37.9891 17.5758 37.6179 17.5227 37.2315 17.5227C36.527 17.5227 35.8887 17.7008 35.3168 18.0568C34.7486 18.4129 34.2959 18.9375 33.9588 19.6307C33.6255 20.3239 33.4588 21.1742 33.4588 22.1818C33.4588 23.1894 33.6255 24.0398 33.9588 24.733C34.2959 25.4261 34.7486 25.9508 35.3168 26.3068C35.8887 26.6629 36.527 26.8409 37.2315 26.8409C37.6179 26.8409 37.9891 26.7879 38.3452 26.6818C38.7012 26.5758 39.0251 26.4186 39.3168 26.2102C39.6122 25.9981 39.8622 25.7386 40.0668 25.4318C40.2751 25.1212 40.4209 24.7652 40.5043 24.3636H41.9134C41.8073 24.9583 41.6141 25.4905 41.3338 25.9602C41.0535 26.4299 40.705 26.8295 40.2884 27.1591C39.8717 27.4848 39.4039 27.733 38.8849 27.9034C38.3698 28.0739 37.8187 28.1591 37.2315 28.1591C36.2391 28.1591 35.3565 27.9167 34.5838 27.4318C33.8111 26.947 33.2031 26.2576 32.7599 25.3636C32.3168 24.4697 32.0952 23.4091 32.0952 22.1818C32.0952 20.9545 32.3168 19.8939 32.7599 19C33.2031 18.1061 33.8111 17.4167 34.5838 16.9318C35.3565 16.447 36.2391 16.2045 37.2315 16.2045C37.8187 16.2045 38.3698 16.2898 38.8849 16.4602C39.4039 16.6307 39.8717 16.8807 40.2884 17.2102C40.705 17.536 41.0535 17.9337 41.3338 18.4034C41.6141 18.8693 41.8073 19.4015 41.9134 20ZM44.1903 28V16.3636H45.5994V22.1364H45.7358L50.9631 16.3636H52.804L47.9176 21.6136L52.804 28H51.0994L47.054 22.5909L45.5994 24.2273V28H44.1903ZM58.696 16.7273V16.3636H66.5597V16.7273H62.8097V28H62.446V16.7273H58.696ZM77.8423 22.1818C77.8423 23.3674 77.6397 24.4091 77.2344 25.3068C76.8291 26.2045 76.2647 26.9053 75.5412 27.4091C74.8177 27.9091 73.9787 28.1591 73.0241 28.1591C72.0658 28.1591 71.2249 27.9072 70.5014 27.4034C69.7779 26.8996 69.2135 26.1989 68.8082 25.3011C68.4067 24.4034 68.206 23.3636 68.206 22.1818C68.206 20.9962 68.4086 19.9564 68.8139 19.0625C69.2192 18.1648 69.7836 17.464 70.5071 16.9602C71.2306 16.4564 72.0696 16.2045 73.0241 16.2045C73.9787 16.2045 74.8177 16.4564 75.5412 16.9602C76.2647 17.4602 76.8291 18.1591 77.2344 19.0568C77.6397 19.9545 77.8423 20.9962 77.8423 22.1818ZM77.4787 22.1818C77.4787 21.0682 77.2912 20.0909 76.9162 19.25C76.5412 18.4053 76.0185 17.7481 75.348 17.2784C74.6813 16.8049 73.9067 16.5682 73.0241 16.5682C72.1454 16.5682 71.3707 16.803 70.7003 17.2727C70.0336 17.7386 69.5109 18.3939 69.1321 19.2386C68.7571 20.0795 68.5696 21.0606 68.5696 22.1818C68.5696 23.2879 68.7552 24.2633 69.1264 25.108C69.4976 25.9489 70.0166 26.608 70.6832 27.0852C71.3537 27.5587 72.134 27.7955 73.0241 27.7955C73.9067 27.7955 74.6832 27.5606 75.3537 27.0909C76.0241 26.6174 76.5469 25.9602 76.9219 25.1193C77.2969 24.2746 77.4825 23.2955 77.4787 22.1818ZM89.7955 22.1818C89.7955 23.3674 89.5928 24.4091 89.1875 25.3068C88.7822 26.2045 88.2178 26.9053 87.4943 27.4091C86.7708 27.9091 85.9318 28.1591 84.9773 28.1591C84.0189 28.1591 83.178 27.9072 82.4545 27.4034C81.7311 26.8996 81.1667 26.1989 80.7614 25.3011C80.3598 24.4034 80.1591 23.3636 80.1591 22.1818C80.1591 20.9962 80.3617 19.9564 80.767 19.0625C81.1723 18.1648 81.7367 17.464 82.4602 16.9602C83.1837 16.4564 84.0227 16.2045 84.9773 16.2045C85.9318 16.2045 86.7708 16.4564 87.4943 16.9602C88.2178 17.4602 88.7822 18.1591 89.1875 19.0568C89.5928 19.9545 89.7955 20.9962 89.7955 22.1818ZM89.4318 22.1818C89.4318 21.0682 89.2443 20.0909 88.8693 19.25C88.4943 18.4053 87.9716 17.7481 87.3011 17.2784C86.6345 16.8049 85.8598 16.5682 84.9773 16.5682C84.0985 16.5682 83.3239 16.803 82.6534 17.2727C81.9867 17.7386 81.464 18.3939 81.0852 19.2386C80.7102 20.0795 80.5227 21.0606 80.5227 22.1818C80.5227 23.2879 80.7083 24.2633 81.0795 25.108C81.4508 25.9489 81.9697 26.608 82.6364 27.0852C83.3068 27.5587 84.0871 27.7955 84.9773 27.7955C85.8598 27.7955 86.6364 27.5606 87.3068 27.0909C87.9773 26.6174 88.5 25.9602 88.875 25.1193C89.25 24.2746 89.4356 23.2955 89.4318 22.1818ZM101.499 16.3636V28H101.135L93.1804 17.0455H93.1349V28H92.7713V16.3636H93.1349L101.089 27.3182H101.135V16.3636H101.499Z" fill="black"/>
</svg>
